  0
SECTION
  2
HEADER
  9
$ACADVER
  1
AC1024
  9
$ACADMAINTVER
 70
     6
  9
$DWGCODEPAGE
  3
UNDEFINED
  9
$INSBASE
 10
0.0
 20
0.0
 30
0.0
  9
$EXTMIN
 10
1.000000000000000E+20
 20
1.000000000000000E+20
 30
1.000000000000000E+20
  9
$EXTMAX
 10
-1.000000000000000E+20
 20
-1.000000000000000E+20
 30
-1.000000000000000E+20
  9
$LIMMIN
 10
0.0
 20
0.0
  9
$LIMMAX
 10
12.0
 20
9.0
  9
$ORTHOMODE
 70
     0
  9
$REGENMODE
 70
     1
  9
$FILLMODE
 70
     1
  9
$QTEXTMODE
 70
     0
  9
$MIRRTEXT
 70
     1
  9
$LTSCALE
 40
1.0
  9
$ATTMODE
 70
     1
  9
$TEXTSIZE
 40
0.2
  9
$TRACEWID
 40
0.05
  9
$TEXTSTYLE
  7
Standard
  9
$CLAYER
  8
0
  9
$CELTYPE
  6
ByLayer
  9
$CECOLOR
 62
   256
  9
$CELTSCALE
 40
1.0
  9
$DISPSILH
 70
     0
  9
$DIMSCALE
 40
1.0
  9
$DIMASZ
 40
0.18
  9
$DIMEXO
 40
0.0625
  9
$DIMDLI
 40
0.38
  9
$DIMRND
 40
0.0
  9
$DIMDLE
 40
0.0
  9
$DIMEXE
 40
0.18
  9
$DIMTP
 40
0.0
  9
$DIMTM
 40
0.0
  9
$DIMTXT
 40
0.18
  9
$DIMCEN
 40
0.09
  9
$DIMTSZ
 40
0.0
  9
$DIMTOL
 70
     0
  9
$DIMLIM
 70
     0
  9
$DIMTIH
 70
     1
  9
$DIMTOH
 70
     1
  9
$DIMSE1
 70
     0
  9
$DIMSE2
 70
     0
  9
$DIMTAD
 70
     0
  9
$DIMZIN
 70
     0
  9
$DIMBLK
  1

  9
$DIMASO
 70
     1
  9
$DIMSHO
 70
     1
  9
$DIMPOST
  1

  9
$DIMAPOST
  1

  9
$DIMALT
 70
     0
  9
$DIMALTD
 70
     2
  9
$DIMALTF
 40
25.4
  9
$DIMLFAC
 40
1.0
  9
$DIMTOFL
 70
     0
  9
$DIMTVP
 40
0.0
  9
$DIMTIX
 70
     0
  9
$DIMSOXD
 70
     0
  9
$DIMSAH
 70
     0
  9
$DIMBLK1
  1

  9
$DIMBLK2
  1

  9
$DIMSTYLE
  2
Standard
  9
$DIMCLRD
 70
     0
  9
$DIMCLRE
 70
     0
  9
$DIMCLRT
 70
     0
  9
$DIMTFAC
 40
1.0
  9
$DIMGAP
 40
0.09
  9
$DIMJUST
 70
     0
  9
$DIMSD1
 70
     0
  9
$DIMSD2
 70
     0
  9
$DIMTOLJ
 70
     1
  9
$DIMTZIN
 70
     0
  9
$DIMALTZ
 70
     0
  9
$DIMALTTZ
 70
     0
  9
$DIMUPT
 70
     0
  9
$DIMDEC
 70
     4
  9
$DIMTDEC
 70
     4
  9
$DIMALTU
 70
     2
  9
$DIMALTTD
 70
     2
  9
$DIMTXSTY
  7
Standard
  9
$DIMAUNIT
 70
     0
  9
$DIMADEC
 70
     0
  9
$DIMALTRND
 40
0.0
  9
$DIMAZIN
 70
     0
  9
$DIMDSEP
 70
    46
  9
$DIMATFIT
 70
     3
  9
$DIMFRAC
 70
     0
  9
$DIMLDRBLK
  1

  9
$DIMLUNIT
 70
     2
  9
$DIMLWD
 70
    -2
  9
$DIMLWE
 70
    -2
  9
$DIMTMOVE
 70
     0
  9
$DIMFXL
 40
1.0
  9
$DIMFXLON
 70
     0
  9
$DIMJOGANG
 40
0.7853981633974483
  9
$DIMTFILL
 70
     0
  9
$DIMTFILLCLR
 70
     0
  9
$DIMARCSYM
 70
     0
  9
$DIMLTYPE
  6

  9
$DIMLTEX1
  6

  9
$DIMLTEX2
  6

  9
$DIMTXTDIRECTION
 70
     0
  9
$LUNITS
 70
     2
  9
$LUPREC
 70
     4
  9
$SKETCHINC
 40
0.1
  9
$FILLETRAD
 40
0.5
  9
$AUNITS
 70
     0
  9
$AUPREC
 70
     0
  9
$MENU
  1
.
  9
$ELEVATION
 40
0.0
  9
$PELEVATION
 40
0.0
  9
$THICKNESS
 40
0.0
  9
$LIMCHECK
 70
     0
  9
$CHAMFERA
 40
0.5
  9
$CHAMFERB
 40
0.5
  9
$CHAMFERC
 40
1.0
  9
$CHAMFERD
 40
0.0
  9
$SKPOLY
 70
     0
  9
$TDCREATE
 40
2458623.747546285
  9
$TDUCREATE
 40
2458623.70587963
  9
$TDUPDATE
 40
2458623.747546285
  9
$TDUUPDATE
 40
2458623.70587963
  9
$TDINDWG
 40
0.0000000116
  9
$TDUSRTIMER
 40
0.0000000116
  9
$USRTIMER
 70
     1
  9
$ANGBASE
 50
0.0
  9
$ANGDIR
 70
     0
  9
$PDMODE
 70
     0
  9
$PDSIZE
 40
0.0
  9
$PLINEWID
 40
0.0
  9
$SPLFRAME
 70
     0
  9
$SPLINETYPE
 70
     6
  9
$SPLINESEGS
 70
     8
  9
$HANDSEED
  5
160
  9
$SURFTAB1
 70
     6
  9
$SURFTAB2
 70
     6
  9
$SURFTYPE
 70
     6
  9
$SURFU
 70
     6
  9
$SURFV
 70
     6
  9
$UCSBASE
  2

  9
$UCSNAME
  2

  9
$UCSORG
 10
0.0
 20
0.0
 30
0.0
  9
$UCSXDIR
 10
1.0
 20
0.0
 30
0.0
  9
$UCSYDIR
 10
0.0
 20
1.0
 30
0.0
  9
$UCSORTHOREF
  2

  9
$UCSORTHOVIEW
 70
     0
  9
$UCSORGTOP
 10
0.0
 20
0.0
 30
0.0
  9
$UCSORGBOTTOM
 10
0.0
 20
0.0
 30
0.0
  9
$UCSORGLEFT
 10
0.0
 20
0.0
 30
0.0
  9
$UCSORGRIGHT
 10
0.0
 20
0.0
 30
0.0
  9
$UCSORGFRONT
 10
0.0
 20
0.0
 30
0.0
  9
$UCSORGBACK
 10
0.0
 20
0.0
 30
0.0
  9
$PUCSBASE
  2

  9
$PUCSNAME
  2

  9
$PUCSORG
 10
0.0
 20
0.0
 30
0.0
  9
$PUCSXDIR
 10
1.0
 20
0.0
 30
0.0
  9
$PUCSYDIR
 10
0.0
 20
1.0
 30
0.0
  9
$PUCSORTHOREF
  2

  9
$PUCSORTHOVIEW
 70
     0
  9
$PUCSORGTOP
 10
0.0
 20
0.0
 30
0.0
  9
$PUCSORGBOTTOM
 10
0.0
 20
0.0
 30
0.0
  9
$PUCSORGLEFT
 10
0.0
 20
0.0
 30
0.0
  9
$PUCSORGRIGHT
 10
0.0
 20
0.0
 30
0.0
  9
$PUCSORGFRONT
 10
0.0
 20
0.0
 30
0.0
  9
$PUCSORGBACK
 10
0.0
 20
0.0
 30
0.0
  9
$USERI1
 70
     0
  9
$USERI2
 70
     0
  9
$USERI3
 70
     0
  9
$USERI4
 70
     0
  9
$USERI5
 70
     0
  9
$USERR1
 40
0.0
  9
$USERR2
 40
0.0
  9
$USERR3
 40
0.0
  9
$USERR4
 40
0.0
  9
$USERR5
 40
0.0
  9
$WORLDVIEW
 70
     1
  9
$SHADEDGE
 70
     3
  9
$SHADEDIF
 70
    70
  9
$TILEMODE
 70
     1
  9
$MAXACTVP
 70
    64
  9
$PINSBASE
 10
0.0
 20
0.0
 30
0.0
  9
$PLIMCHECK
 70
     0
  9
$PEXTMIN
 10
1.000000000000000E+20
 20
1.000000000000000E+20
 30
1.000000000000000E+20
  9
$PEXTMAX
 10
-1.000000000000000E+20
 20
-1.000000000000000E+20
 30
-1.000000000000000E+20
  9
$PLIMMIN
 10
0.0
 20
0.0
  9
$PLIMMAX
 10
12.0
 20
9.0
  9
$UNITMODE
 70
     0
  9
$VISRETAIN
 70
     1
  9
$PLINEGEN
 70
     0
  9
$PSLTSCALE
 70
     1
  9
$TREEDEPTH
 70
  3020
  9
$CMLSTYLE
  2
Standard
  9
$CMLJUST
 70
     0
  9
$CMLSCALE
 40
1.0
  9
$PROXYGRAPHICS
 70
     1
  9
$MEASUREMENT
 70
     0
  9
$CELWEIGHT
370
    -1
  9
$ENDCAPS
280
     0
  9
$JOINSTYLE
280
     0
  9
$LWDISPLAY
290
     1
  9
$INSUNITS
 70
     1
  9
$HYPERLINKBASE
  1

  9
$STYLESHEET
  1

  9
$XEDIT
290
     1
  9
$CEPSNTYPE
380
     0
  9
$PSTYLEMODE
290
     1
  9
$FINGERPRINTGUID
  2
{BD213A8F-AA52-57F8-6FC6-0996F22AEEE7}
  9
$VERSIONGUID
  2
{FAEB1C32-E019-11D5-929B-00C0DF256EC4}
  9
$EXTNAMES
290
     1
  9
$PSVPSCALE
 40
0.0
  9
$OLESTARTUP
290
     0
  9
$SORTENTS
280
   127
  9
$INDEXCTL
280
     0
  9
$HIDETEXT
280
     1
  9
$XCLIPFRAME
280
     2
  9
$HALOGAP
280
     0
  9
$OBSCOLOR
 70
   257
  9
$OBSLTYPE
280
     0
  9
$INTERSECTIONDISPLAY
280
     0
  9
$INTERSECTIONCOLOR
 70
   257
  9
$DIMASSOC
280
     2
  9
$PROJECTNAME
  1

  9
$CAMERADISPLAY
290
     0
  9
$LENSLENGTH
 40
50.0
  9
$CAMERAHEIGHT
 40
0.0
  9
$STEPSPERSEC
 40
2.0
  9
$STEPSIZE
 40
6.0
  9
$3DDWFPREC
 40
2.0
  9
$PSOLWIDTH
 40
0.25
  9
$PSOLHEIGHT
 40
4.0
  9
$LOFTANG1
 40
1.570796326794897
  9
$LOFTANG2
 40
1.570796326794897
  9
$LOFTMAG1
 40
0.0
  9
$LOFTMAG2
 40
0.0
  9
$LOFTPARAM
 70
     7
  9
$LOFTNORMALS
280
     1
  9
$LATITUDE
 40
37.795
  9
$LONGITUDE
 40
-122.394
  9
$NORTHDIRECTION
 40
0.0
  9
$TIMEZONE
 70
 -8000
  9
$LIGHTGLYPHDISPLAY
280
     1
  9
$TILEMODELIGHTSYNCH
280
     1
  9
$CMATERIAL
347
3C
  9
$SOLIDHIST
280
     1
  9
$SHOWHIST
280
     1
  9
$DWFFRAME
280
     2
  9
$DGNFRAME
280
     2
  9
$REALWORLDSCALE
290
     1
  9
$INTERFERECOLOR
 62
   256
  9
$CSHADOW
280
     0
  9
$SHADOWPLANELOCATION
 40
0.0
  0
ENDSEC
  0
SECTION
  2
CLASSES
  0
CLASS
  1
ACDBDICTIONARYWDFLT
  2
AcDbDictionaryWithDefault
  3
ObjectDBX Classes
 90
        0
 91
        4
280
     0
281
     0
  0
CLASS
  1
VISUALSTYLE
  2
AcDbVisualStyle
  3
ObjectDBX Classes
 90
     4095
 91
        4
280
     0
281
     0
  0
CLASS
  1
MATERIAL
  2
AcDbMaterial
  3
ObjectDBX Classes
 90
     1153
 91
        4
280
     0
281
     0
  0
CLASS
  1
SUN
  2
AcDbSun
  3
SCENEOE
 90
     1024
 91
        4
280
     0
281
     0
  0
ENDSEC
  0
SECTION
  2
TABLES
  0
TABLE
  2
VPORT
  5
8
330
0
100
AcDbSymbolTable
 70
     1
  0
VPORT
  5
29
330
8
100
AcDbSymbolTableRecord
100
AcDbViewportTableRecord
  2
*Active
 70
     0
 10
0.0
 20
0.0
 11
1.0
 21
1.0
 12
0.0
 22
0.0
 13
0.0
 23
0.0
 14
0.5
 24
0.5
 15
0.5
 25
0.5
 16
0.0
 26
0.0
 36
1.0
 17
237.3341631354298
 27
-257.8929400363609
 37
0.0
 40
324.2141197173055
 41
1.464058156025841
 42
50.0
 43
0.0
 44
0.0
 50
0.0
 51
0.0
 71
     0
 72
   100
 73
     1
 74
     3
 75
     0
 76
     0
 77
     0
 78
     0
281
     0
 65
     1
110
0.0
120
0.0
130
0.0
111
1.0
121
0.0
131
0.0
112
0.0
122
1.0
132
0.0
 79
     0
146
0.0
 60
     3
 61
     5
292
     1
282
     1
141
0.0
142
0.0
 63
   250
361
3F
  0
ENDTAB
  0
TABLE
  2
LTYPE
  5
5
330
0
100
AcDbSymbolTable
 70
     1
  0
LTYPE
  5
14
330
5
100
AcDbSymbolTableRecord
100
AcDbLinetypeTableRecord
  2
ByBlock
 70
     0
  3

 72
    65
 73
     0
 40
0.0
  0
LTYPE
  5
15
330
5
100
AcDbSymbolTableRecord
100
AcDbLinetypeTableRecord
  2
ByLayer
 70
     0
  3

 72
    65
 73
     0
 40
0.0
  0
LTYPE
  5
16
330
5
100
AcDbSymbolTableRecord
100
AcDbLinetypeTableRecord
  2
Continuous
 70
     0
  3
Solid line
 72
    65
 73
     0
 40
0.0
  0
ENDTAB
  0
TABLE
  2
LAYER
  5
2
330
0
100
AcDbSymbolTable
 70
     2
  0
LAYER
  5
10
330
2
100
AcDbSymbolTableRecord
100
AcDbLayerTableRecord
  2
0
 70
     0
 62
     7
  6
Continuous
370
    -3
390
F
347
3E
  0
LAYER
  5
40
330
2
100
AcDbSymbolTableRecord
100
AcDbLayerTableRecord
  2
Layer 1
 70
     0
 62
     7
  6
Continuous
370
    -3
390
F
347
3E
  0
ENDTAB
  0
TABLE
  2
STYLE
  5
3
330
0
100
AcDbSymbolTable
 70
     1
  0
STYLE
  5
11
330
3
100
AcDbSymbolTableRecord
100
AcDbTextStyleTableRecord
  2
Standard
 70
     0
 40
0.0
 41
1.0
 50
0.0
 71
     0
 42
0.2
  3
txt
  4

  0
ENDTAB
  0
TABLE
  2
VIEW
  5
6
330
0
100
AcDbSymbolTable
 70
     0
  0
ENDTAB
  0
TABLE
  2
UCS
  5
7
330
0
100
AcDbSymbolTable
 70
     0
  0
ENDTAB
  0
TABLE
  2
APPID
  5
9
330
0
100
AcDbSymbolTable
 70
     1
  0
APPID
  5
12
330
9
100
AcDbSymbolTableRecord
100
AcDbRegAppTableRecord
  2
ACAD
 70
     0
  0
ENDTAB
  0
TABLE
  2
DIMSTYLE
  5
A
330
0
100
AcDbSymbolTable
 70
     1
100
AcDbDimStyleTable
  0
DIMSTYLE
105
27
330
A
100
AcDbSymbolTableRecord
100
AcDbDimStyleTableRecord
  2
Standard
 70
     0
178
     0
340
11
  0
ENDTAB
  0
TABLE
  2
BLOCK_RECORD
  5
1
330
0
100
AcDbSymbolTable
 70
     2
  0
BLOCK_RECORD
  5
1F
330
1
100
AcDbSymbolTableRecord
100
AcDbBlockTableRecord
  2
*Model_Space
340
22
 70
     0
280
     1
281
     0
  0
BLOCK_RECORD
  5
1B
330
1
100
AcDbSymbolTableRecord
100
AcDbBlockTableRecord
  2
*Paper_Space
340
1E
 70
     0
280
     1
281
     0
  0
BLOCK_RECORD
  5
23
330
1
100
AcDbSymbolTableRecord
100
AcDbBlockTableRecord
  2
*Paper_Space0
340
26
 70
     0
280
     1
281
     0
  0
BLOCK_RECORD
  5
D0
330
1
100
AcDbSymbolTableRecord
100
AcDbBlockTableRecord
  2
block 2
340
0
102
{BLKREFS
331
D1
102
}
 70
     0
280
     1
281
     0
  0
ENDTAB
  0
ENDSEC
  0
SECTION
  2
BLOCKS
  0
BLOCK
  5
20
330
1F
100
AcDbEntity
  8
0
100
AcDbBlockBegin
  2
*Model_Space
 70
     0
 10
0.0
 20
0.0
 30
0.0
  3
*Model_Space
  1

  0
ENDBLK
  5
21
330
1F
100
AcDbEntity
  8
0
100
AcDbBlockEnd
  0
BLOCK
  5
1C
330
1B
100
AcDbEntity
 67
     1
  8
0
100
AcDbBlockBegin
  2
*Paper_Space
 70
     0
 10
0.0
 20
0.0
 30
0.0
  3
*Paper_Space
  1

  0
ENDBLK
  5
1D
330
1B
100
AcDbEntity
 67
     1
  8
0
100
AcDbBlockEnd
  0
BLOCK
  5
24
330
23
100
AcDbEntity
  8
0
100
AcDbBlockBegin
  2
*Paper_Space0
 70
     0
 10
0.0
 20
0.0
 30
0.0
  3
*Paper_Space0
  1

  0
ENDBLK
  5
25
330
23
100
AcDbEntity
  8
0
100
AcDbBlockEnd
  0
BLOCK
  5
D2
330
D0
100
AcDbEntity
  8
0
100
AcDbBlockBegin
  2
block 2
 70
     0
 10
0.0
 20
0.0
 30
0.0
  3
block 2
  1

  0
SPLINE
  5
D4
330
D0
100
AcDbEntity
  8
Layer 1
 62
   179
420
  2301728
370
    18
100
AcDbSpline
210
0.0
220
0.0
230
1.0
 70
    11
 71
     3
 72
    17
 73
    13
 74
     0
 42
0.0000000001
 43
0.0000000001
 12
1.0
 22
0.0
 32
0.0
 13
1.0
 23
0.0
 33
0.0
 40
0.0
 40
0.0
 40
0.0
 40
0.0
 40
1.0
 40
1.0
 40
1.0
 40
2.0
 40
2.0
 40
2.0
 40
3.0
 40
3.0
 40
3.0
 40
4.0
 40
4.0
 40
4.0
 40
4.0
 10
37.81501487101663
 20
-313.7688657845618
 30
0.0
 10
37.81501487101663
 20
-315.9780047832093
 30
0.0
 10
36.02415387066404
 20
-317.7688657835615
 30
0.0
 10
33.8150148720169
 20
-317.7688657835615
 30
0.0
 10
31.60587587336942
 20
-317.7688657835615
 30
0.0
 10
29.81501487301716
 20
-315.9780047832093
 30
0.0
 10
29.81501487301716
 20
-313.7688657845618
 30
0.0
 10
29.81501487301716
 20
-311.5597267859143
 30
0.0
 10
31.60587587336942
 20
-309.7688657855621
 30
0.0
 10
33.8150148720169
 20
-309.7688657855621
 30
0.0
 10
36.02415387066404
 20
-309.7688657855621
 30
0.0
 10
37.81501487101663
 20
-311.5597267859143
 30
0.0
 10
37.81501487101663
 20
-313.7688657845618
 30
0.0
  0
SPLINE
  5
D5
330
D0
100
AcDbEntity
  8
Layer 1
 62
   179
420
  2301728
370
    18
100
AcDbSpline
210
0.0
220
0.0
230
1.0
 70
    11
 71
     3
 72
    17
 73
    13
 74
     0
 42
0.0000000001
 43
0.0000000001
 12
1.0
 22
0.0
 32
0.0
 13
1.0
 23
0.0
 33
0.0
 40
0.0
 40
0.0
 40
0.0
 40
0.0
 40
1.0
 40
1.0
 40
1.0
 40
2.0
 40
2.0
 40
2.0
 40
3.0
 40
3.0
 40
3.0
 40
4.0
 40
4.0
 40
4.0
 40
4.0
 10
37.41501487111672
 20
-313.7688657845618
 30
0.0
 10
37.41501487111672
 20
-315.7570908833449
 30
0.0
 10
35.80323997080001
 20
-317.3688657836616
 30
0.0
 10
33.8150148720169
 20
-317.3688657836616
 30
0.0
 10
31.82678977323379
 20
-317.3688657836616
 30
0.0
 10
30.21501487291707
 20
-315.7570908833449
 30
0.0
 10
30.21501487291707
 20
-313.7688657845618
 30
0.0
 10
30.21501487291707
 20
-311.7806406857787
 30
0.0
 10
31.82678977323379
 20
-310.168865785462
 30
0.0
 10
33.8150148720169
 20
-310.168865785462
 30
0.0
 10
35.80323997080001
 20
-310.168865785462
 30
0.0
 10
37.41501487111672
 20
-311.7806406857787
 30
0.0
 10
37.41501487111672
 20
-313.7688657845618
 30
0.0
  0
ENDBLK
  5
D3
330
D0
100
AcDbEntity
  8
0
100
AcDbBlockEnd
  0
ENDSEC
  0
SECTION
  2
ENTITIES
  0
SPLINE
  5
41
330
1F
100
AcDbEntity
  8
Layer 1
 62
   179
420
  2301728
370
    18
100
AcDbSpline
210
0.0
220
0.0
230
1.0
 70
    11
 71
     3
 72
    17
 73
    13
 74
     0
 42
0.0000000001
 43
0.0000000001
 12
1.0
 22
0.0
 32
0.0
 13
1.0
 23
0.0
 33
0.0
 40
0.0
 40
0.0
 40
0.0
 40
0.0
 40
1.0
 40
1.0
 40
1.0
 40
2.0
 40
2.0
 40
2.0
 40
3.0
 40
3.0
 40
3.0
 40
4.0
 40
4.0
 40
4.0
 40
4.0
 10
119.6175899008189
 20
-349.9252348797364
 30
0.0
 10
119.6175899008189
 20
-353.2599941081913
 30
0.0
 10
116.9142334114978
 20
-355.9633505975124
 30
0.0
 10
113.5794741830416
 20
-355.9633505975124
 30
0.0
 10
110.2447149545856
 20
-355.9633505975124
 30
0.0
 10
107.5413584652643
 20
-353.2599941081913
 30
0.0
 10
107.5413584652643
 20
-349.9252348797364
 30
0.0
 10
107.5413584652643
 20
-346.5904756512801
 30
0.0
 10
110.2447149545856
 20
-343.887119161959
 30
0.0
 10
113.5794741830416
 20
-343.887119161959
 30
0.0
 10
116.9142334114978
 20
-343.887119161959
 30
0.0
 10
119.6175899008189
 20
-346.5904756512801
 30
0.0
 10
119.6175899008189
 20
-349.9252348797364
 30
0.0
  0
SPLINE
  5
42
330
1F
100
AcDbEntity
  8
Layer 1
 62
   179
420
  2301728
370
    18
100
AcDbSpline
210
0.0
220
0.0
230
1.0
 70
    11
 71
     3
 72
    17
 73
    13
 74
     0
 42
0.0000000001
 43
0.0000000001
 12
1.0
 22
0.0
 32
0.0
 13
1.0
 23
0.0
 33
0.0
 40
0.0
 40
0.0
 40
0.0
 40
0.0
 40
1.0
 40
1.0
 40
1.0
 40
2.0
 40
2.0
 40
2.0
 40
3.0
 40
3.0
 40
3.0
 40
4.0
 40
4.0
 40
4.0
 40
4.0
 10
129.8980906756642
 20
-349.9252348797364
 30
0.0
 10
129.8980906756642
 20
-351.1208321863064
 30
0.0
 10
128.9288675576197
 20
-352.090055304351
 30
0.0
 10
127.7332702510496
 20
-352.090055304351
 30
0.0
 10
126.5376729444795
 20
-352.090055304351
 30
0.0
 10
125.568449826435
 20
-351.1208321863064
 30
0.0
 10
125.568449826435
 20
-349.9252348797364
 30
0.0
 10
125.568449826435
 20
-348.7296375731656
 30
0.0
 10
126.5376729444795
 20
-347.7604144551217
 30
0.0
 10
127.7332702510496
 20
-347.7604144551217
 30
0.0
 10
128.9288675576197
 20
-347.7604144551217
 30
0.0
 10
129.8980906756642
 20
-348.7296375731656
 30
0.0
 10
129.8980906756642
 20
-349.9252348797364
 30
0.0
  0
POLYLINE
  5
43
330
1F
100
AcDbEntity
  8
Layer 1
 62
   179
420
  2301728
370
    18
100
AcDb2dPolyline
 66
     1
 10
0.0
 20
0.0
 30
0.0
  0
VERTEX
  5
44
330
43
100
AcDbEntity
  8
Layer 1
 62
   179
420
  2301728
370
    18
100
AcDbVertex
100
AcDb2dVertex
 10
454.7786858135182
 20
-337.4633379876927
 30
0.0
  0
VERTEX
  5
45
330
43
100
AcDbEntity
  8
Layer 1
 62
   179
420
  2301728
370
    18
100
AcDbVertex
100
AcDb2dVertex
 10
324.778696696712
 20
-337.4633379876927
 30
0.0
  0
VERTEX
  5
46
330
43
100
AcDbEntity
  8
Layer 1
 62
   179
420
  2301728
370
    18
100
AcDbVertex
100
AcDb2dVertex
 10
324.778696696712
 20
-189.463338024693
 30
0.0
  0
VERTEX
  5
47
330
43
100
AcDbEntity
  8
Layer 1
 62
   179
420
  2301728
370
    18
100
AcDbVertex
100
AcDb2dVertex
 10
454.7786858135182
 20
-189.463338024693
 30
0.0
  0
VERTEX
  5
48
330
43
100
AcDbEntity
  8
Layer 1
 62
   179
420
  2301728
370
    18
100
AcDbVertex
100
AcDb2dVertex
 10
454.7786858135182
 20
-337.4633379876927
 30
0.0
  0
SEQEND
  5
49
330
43
100
AcDbEntity
  8
Layer 1
 62
   179
420
  2301728
370
    18
  0
POLYLINE
  5
4A
330
1F
100
AcDbEntity
  8
Layer 1
 62
   179
420
  2301728
370
    18
100
AcDb2dPolyline
 66
     1
 10
0.0
 20
0.0
 30
0.0
  0
VERTEX
  5
4B
330
4A
100
AcDbEntity
  8
Layer 1
 62
   179
420
  2301728
370
    18
100
AcDbVertex
100
AcDb2dVertex
 10
217.814683051578
 20
-131.2633395055597
 30
0.0
  0
VERTEX
  5
4C
330
4A
100
AcDbEntity
  8
Layer 1
 62
   179
420
  2301728
370
    18
100
AcDbVertex
100
AcDb2dVertex
 10
217.814683051578
 20
-117.4632343929073
 30
0.0
  0
VERTEX
  5
4D
330
4A
100
AcDbEntity
  8
Layer 1
 62
   179
420
  2301728
370
    18
100
AcDbVertex
100
AcDb2dVertex
 10
214.8148661577967
 20
-117.4632343929073
 30
0.0
  0
VERTEX
  5
4E
330
4A
100
AcDbEntity
  8
Layer 1
 62
   179
420
  2301728
370
    18
100
AcDbVertex
100
AcDb2dVertex
 10
214.8148661577967
 20
-111.4632560957962
 30
0.0
  0
VERTEX
  5
4F
330
4A
100
AcDbEntity
  8
Layer 1
 62
   179
420
  2301728
370
    18
100
AcDbVertex
100
AcDb2dVertex
 10
90.81485533810223
 20
-111.4632560957962
 30
0.0
  0
VERTEX
  5
50
330
4A
100
AcDbEntity
  8
Layer 1
 62
   179
420
  2301728
370
    18
100
AcDbVertex
100
AcDb2dVertex
 10
90.81485533810223
 20
-117.4632343929073
 30
0.0
  0
VERTEX
  5
51
330
4A
100
AcDbEntity
  8
Layer 1
 62
   179
420
  2301728
370
    18
100
AcDbVertex
100
AcDb2dVertex
 10
87.81503844432093
 20
-117.4632343929073
 30
0.0
  0
VERTEX
  5
52
330
4A
100
AcDbEntity
  8
Layer 1
 62
   179
420
  2301728
370
    18
100
AcDbVertex
100
AcDb2dVertex
 10
87.81503844432093
 20
-131.2633395055597
 30
0.0
  0
VERTEX
  5
53
330
4A
100
AcDbEntity
  8
Layer 1
 62
   179
420
  2301728
370
    18
100
AcDbVertex
100
AcDb2dVertex
 10
90.8150275928765
 20
-131.2633395055597
 30
0.0
  0
VERTEX
  5
54
330
4A
100
AcDbEntity
  8
Layer 1
 62
   179
420
  2301728
370
    18
100
AcDbVertex
100
AcDb2dVertex
 10
90.8150275928765
 20
-145.063358490825
 30
0.0
  0
VERTEX
  5
55
330
4A
100
AcDbEntity
  8
Layer 1
 62
   179
420
  2301728
370
    18
100
AcDbVertex
100
AcDb2dVertex
 10
87.81503844432093
 20
-145.063358490825
 30
0.0
  0
VERTEX
  5
56
330
4A
100
AcDbEntity
  8
Layer 1
 62
   179
420
  2301728
370
    18
100
AcDbVertex
100
AcDb2dVertex
 10
87.81503844432093
 20
-158.8633344123967
 30
0.0
  0
VERTEX
  5
57
330
4A
100
AcDbEntity
  8
Layer 1
 62
   179
420
  2301728
370
    18
100
AcDbVertex
100
AcDb2dVertex
 10
90.8150275928765
 20
-158.8633344123967
 30
0.0
  0
VERTEX
  5
58
330
4A
100
AcDbEntity
  8
Layer 1
 62
   179
420
  2301728
370
    18
100
AcDbVertex
100
AcDb2dVertex
 10
90.8150275928765
 20
-172.6633103339684
 30
0.0
  0
VERTEX
  5
59
330
4A
100
AcDbEntity
  8
Layer 1
 62
   179
420
  2301728
370
    18
100
AcDbVertex
100
AcDb2dVertex
 10
87.81503844432093
 20
-172.6633103339684
 30
0.0
  0
VERTEX
  5
5A
330
4A
100
AcDbEntity
  8
Layer 1
 62
   179
420
  2301728
370
    18
100
AcDbVertex
100
AcDb2dVertex
 10
87.81503844432093
 20
-186.4631570644594
 30
0.0
  0
VERTEX
  5
5B
330
4A
100
AcDbEntity
  8
Layer 1
 62
   179
420
  2301728
370
    18
100
AcDbVertex
100
AcDb2dVertex
 10
90.81485533810223
 20
-186.4631570644594
 30
0.0
  0
VERTEX
  5
5C
330
4A
100
AcDbEntity
  8
Layer 1
 62
   179
420
  2301728
370
    18
100
AcDbVertex
100
AcDb2dVertex
 10
90.81485533810223
 20
-192.4633076163448
 30
0.0
  0
VERTEX
  5
5D
330
4A
100
AcDbEntity
  8
Layer 1
 62
   179
420
  2301728
370
    18
100
AcDbVertex
100
AcDb2dVertex
 10
104.5926319256409
 20
-192.4633076163448
 30
0.0
  0
VERTEX
  5
5E
330
4A
100
AcDbEntity
  8
Layer 1
 62
   179
420
  2301728
370
    18
100
AcDbVertex
100
AcDb2dVertex
 10
104.5926319256409
 20
-189.4633184677893
 30
0.0
  0
VERTEX
  5
5F
330
4A
100
AcDbEntity
  8
Layer 1
 62
   179
420
  2301728
370
    18
100
AcDbVertex
100
AcDb2dVertex
 10
118.3704085131795
 20
-189.4633184677893
 30
0.0
  0
VERTEX
  5
60
330
4A
100
AcDbEntity
  8
Layer 1
 62
   179
420
  2301728
370
    18
100
AcDbVertex
100
AcDb2dVertex
 10
118.3704085131795
 20
-192.4633076163448
 30
0.0
  0
VERTEX
  5
61
330
4A
100
AcDbEntity
  8
Layer 1
 62
   179
420
  2301728
370
    18
100
AcDbVertex
100
AcDb2dVertex
 10
132.1481635688714
 20
-192.4633076163448
 30
0.0
  0
VERTEX
  5
62
330
4A
100
AcDbEntity
  8
Layer 1
 62
   179
420
  2301728
370
    18
100
AcDbVertex
100
AcDb2dVertex
 10
132.1481635688714
 20
-189.4633184677893
 30
0.0
  0
VERTEX
  5
63
330
4A
100
AcDbEntity
  8
Layer 1
 62
   179
420
  2301728
370
    18
100
AcDbVertex
100
AcDb2dVertex
 10
145.9259616882568
 20
-189.4633184677893
 30
0.0
  0
VERTEX
  5
64
330
4A
100
AcDbEntity
  8
Layer 1
 62
   179
420
  2301728
370
    18
100
AcDbVertex
100
AcDb2dVertex
 10
145.9259616882568
 20
-192.4633076163448
 30
0.0
  0
VERTEX
  5
65
330
4A
100
AcDbEntity
  8
Layer 1
 62
   179
420
  2301728
370
    18
100
AcDbVertex
100
AcDb2dVertex
 10
159.7037598076422
 20
-192.4633076163448
 30
0.0
  0
VERTEX
  5
66
330
4A
100
AcDbEntity
  8
Layer 1
 62
   179
420
  2301728
370
    18
100
AcDbVertex
100
AcDb2dVertex
 10
159.7037598076422
 20
-189.4633184677893
 30
0.0
  0
VERTEX
  5
67
330
4A
100
AcDbEntity
  8
Layer 1
 62
   179
420
  2301728
370
    18
100
AcDbVertex
100
AcDb2dVertex
 10
173.4815579270276
 20
-189.4633184677893
 30
0.0
  0
VERTEX
  5
68
330
4A
100
AcDbEntity
  8
Layer 1
 62
   179
420
  2301728
370
    18
100
AcDbVertex
100
AcDb2dVertex
 10
173.4815579270276
 20
-192.4633076163448
 30
0.0
  0
VERTEX
  5
69
330
4A
100
AcDbEntity
  8
Layer 1
 62
   179
420
  2301728
370
    18
100
AcDbVertex
100
AcDb2dVertex
 10
187.2593129827194
 20
-192.4633076163448
 30
0.0
  0
VERTEX
  5
6A
330
4A
100
AcDbEntity
  8
Layer 1
 62
   179
420
  2301728
370
    18
100
AcDbVertex
100
AcDb2dVertex
 10
187.2593129827194
 20
-189.4633184677893
 30
0.0
  0
VERTEX
  5
6B
330
4A
100
AcDbEntity
  8
Layer 1
 62
   179
420
  2301728
370
    18
100
AcDbVertex
100
AcDb2dVertex
 10
201.0370680384113
 20
-189.4633184677893
 30
0.0
  0
VERTEX
  5
6C
330
4A
100
AcDbEntity
  8
Layer 1
 62
   179
420
  2301728
370
    18
100
AcDbVertex
100
AcDb2dVertex
 10
201.0370680384113
 20
-192.4633076163448
 30
0.0
  0
VERTEX
  5
6D
330
4A
100
AcDbEntity
  8
Layer 1
 62
   179
420
  2301728
370
    18
100
AcDbVertex
100
AcDb2dVertex
 10
214.8148661577967
 20
-192.4633076163448
 30
0.0
  0
VERTEX
  5
6E
330
4A
100
AcDbEntity
  8
Layer 1
 62
   179
420
  2301728
370
    18
100
AcDbVertex
100
AcDb2dVertex
 10
214.8148661577967
 20
-186.4631570644594
 30
0.0
  0
VERTEX
  5
6F
330
4A
100
AcDbEntity
  8
Layer 1
 62
   179
420
  2301728
370
    18
100
AcDbVertex
100
AcDb2dVertex
 10
217.814683051578
 20
-186.4631570644594
 30
0.0
  0
VERTEX
  5
70
330
4A
100
AcDbEntity
  8
Layer 1
 62
   179
420
  2301728
370
    18
100
AcDbVertex
100
AcDb2dVertex
 10
217.814683051578
 20
-172.6633103339684
 30
0.0
  0
VERTEX
  5
71
330
4A
100
AcDbEntity
  8
Layer 1
 62
   179
420
  2301728
370
    18
100
AcDbVertex
100
AcDb2dVertex
 10
214.8146939030224
 20
-172.6633103339684
 30
0.0
  0
VERTEX
  5
72
330
4A
100
AcDbEntity
  8
Layer 1
 62
   179
420
  2301728
370
    18
100
AcDbVertex
100
AcDb2dVertex
 10
214.8146939030224
 20
-158.8633344123967
 30
0.0
  0
VERTEX
  5
73
330
4A
100
AcDbEntity
  8
Layer 1
 62
   179
420
  2301728
370
    18
100
AcDbVertex
100
AcDb2dVertex
 10
217.814683051578
 20
-158.8633344123967
 30
0.0
  0
VERTEX
  5
74
330
4A
100
AcDbEntity
  8
Layer 1
 62
   179
420
  2301728
370
    18
100
AcDbVertex
100
AcDb2dVertex
 10
217.814683051578
 20
-145.063358490825
 30
0.0
  0
VERTEX
  5
75
330
4A
100
AcDbEntity
  8
Layer 1
 62
   179
420
  2301728
370
    18
100
AcDbVertex
100
AcDb2dVertex
 10
214.8146939030224
 20
-145.063358490825
 30
0.0
  0
VERTEX
  5
76
330
4A
100
AcDbEntity
  8
Layer 1
 62
   179
420
  2301728
370
    18
100
AcDbVertex
100
AcDb2dVertex
 10
214.8146939030224
 20
-131.2633395055597
 30
0.0
  0
VERTEX
  5
77
330
4A
100
AcDbEntity
  8
Layer 1
 62
   179
420
  2301728
370
    18
100
AcDbVertex
100
AcDb2dVertex
 10
217.814683051578
 20
-131.2633395055597
 30
0.0
  0
SEQEND
  5
78
330
4A
100
AcDbEntity
  8
Layer 1
 62
   179
420
  2301728
370
    18
  0
SPLINE
  5
79
330
1F
100
AcDbEntity
  8
Layer 1
 62
   179
420
  2301728
370
    18
100
AcDbSpline
210
0.0
220
0.0
230
1.0
 70
    11
 71
     3
 72
    29
 73
    25
 74
     0
 42
0.0000000001
 43
0.0000000001
 12
1.0
 22
0.0
 32
0.0
 13
1.0
 23
0.0
 33
0.0
 40
0.0
 40
0.0
 40
0.0
 40
0.0
 40
1.0
 40
1.0
 40
1.0
 40
2.0
 40
2.0
 40
2.0
 40
3.0
 40
3.0
 40
3.0
 40
4.0
 40
4.0
 40
4.0
 40
5.0
 40
5.0
 40
5.0
 40
6.0
 40
6.0
 40
6.0
 40
7.0
 40
7.0
 40
7.0
 40
8.0
 40
8.0
 40
8.0
 40
8.0
 10
155.3148804142081
 20
-208.7488748918877
 30
0.0
 10
155.3148804142081
 20
-208.7488748918877
 30
0.0
 10
155.3148804142081
 20
-200.5745030474144
 30
0.0
 10
155.3148804142081
 20
-200.5745030474144
 30
0.0
 10
155.3148804142081
 20
-199.1937949043134
 30
0.0
 10
154.1955688910505
 20
-198.0745049130025
 30
0.0
 10
152.8148607479495
 20
-198.0745049130025
 30
0.0
 10
151.4341526048485
 20
-198.0745049130025
 30
0.0
 10
150.3148410816908
 20
-199.1937949043134
 30
0.0
 10
150.3148410816908
 20
-200.5745030474144
 30
0.0
 10
150.3148410816908
 20
-200.5745030474144
 30
0.0
 10
150.3148410816908
 20
-208.7488748918877
 30
0.0
 10
150.3148410816908
 20
-208.7488748918877
 30
0.0
 10
148.8218228257706
 20
-209.6137661134597
 30
0.0
 10
147.8148644791257
 20
-211.2248865489835
 30
0.0
 10
147.8148644791257
 20
-213.0744937194738
 30
0.0
 10
147.8148644791257
 20
-215.8359315375226
 30
0.0
 10
150.0534444617475
 20
-218.0745115201444
 30
0.0
 10
152.8148607479495
 20
-218.0745115201444
 30
0.0
 10
155.5762770341515
 20
-218.0745115201444
 30
0.0
 10
157.8148570167732
 20
-215.8359315375226
 30
0.0
 10
157.8148570167732
 20
-213.0744937194738
 30
0.0
 10
157.8148570167732
 20
-211.2248865489835
 30
0.0
 10
156.8078986701283
 20
-209.6137661134597
 30
0.0
 10
155.3148804142081
 20
-208.7488748918877
 30
0.0
  0
POLYLINE
  5
7A
330
1F
100
AcDbEntity
  8
Layer 1
 62
   179
420
  2301728
370
    18
100
AcDb2dPolyline
 66
     1
 10
0.0
 20
0.0
 30
0.0
  0
VERTEX
  5
7B
330
7A
100
AcDbEntity
  8
Layer 1
 62
   179
420
  2301728
370
    18
100
AcDbVertex
100
AcDb2dVertex
 10
214.8146939030224
 20
-192.4633076163448
 30
0.0
  0
VERTEX
  5
7C
330
7A
100
AcDbEntity
  8
Layer 1
 62
   179
420
  2301728
370
    18
100
AcDbVertex
100
AcDb2dVertex
 10
201.0370680384113
 20
-192.4633076163448
 30
0.0
  0
VERTEX
  5
7D
330
7A
100
AcDbEntity
  8
Layer 1
 62
   179
420
  2301728
370
    18
100
AcDbVertex
100
AcDb2dVertex
 10
201.0370680384113
 20
-189.4633184677893
 30
0.0
  0
VERTEX
  5
7E
330
7A
100
AcDbEntity
  8
Layer 1
 62
   179
420
  2301728
370
    18
100
AcDbVertex
100
AcDb2dVertex
 10
187.2593129827194
 20
-189.4633184677893
 30
0.0
  0
VERTEX
  5
7F
330
7A
100
AcDbEntity
  8
Layer 1
 62
   179
420
  2301728
370
    18
100
AcDbVertex
100
AcDb2dVertex
 10
187.2593129827194
 20
-192.4633076163448
 30
0.0
  0
VERTEX
  5
80
330
7A
100
AcDbEntity
  8
Layer 1
 62
   179
420
  2301728
370
    18
100
AcDbVertex
100
AcDb2dVertex
 10
173.4815579270276
 20
-192.4633076163448
 30
0.0
  0
VERTEX
  5
81
330
7A
100
AcDbEntity
  8
Layer 1
 62
   179
420
  2301728
370
    18
100
AcDbVertex
100
AcDb2dVertex
 10
173.4815579270276
 20
-189.4633184677893
 30
0.0
  0
VERTEX
  5
82
330
7A
100
AcDbEntity
  8
Layer 1
 62
   179
420
  2301728
370
    18
100
AcDbVertex
100
AcDb2dVertex
 10
159.7037598076422
 20
-189.4633184677893
 30
0.0
  0
VERTEX
  5
83
330
7A
100
AcDbEntity
  8
Layer 1
 62
   179
420
  2301728
370
    18
100
AcDbVertex
100
AcDb2dVertex
 10
159.7037598076422
 20
-192.4633076163448
 30
0.0
  0
VERTEX
  5
84
330
7A
100
AcDbEntity
  8
Layer 1
 62
   179
420
  2301728
370
    18
100
AcDbVertex
100
AcDb2dVertex
 10
145.9259616882568
 20
-192.4633076163448
 30
0.0
  0
VERTEX
  5
85
330
7A
100
AcDbEntity
  8
Layer 1
 62
   179
420
  2301728
370
    18
100
AcDbVertex
100
AcDb2dVertex
 10
145.9259616882568
 20
-189.4633184677893
 30
0.0
  0
VERTEX
  5
86
330
7A
100
AcDbEntity
  8
Layer 1
 62
   179
420
  2301728
370
    18
100
AcDbVertex
100
AcDb2dVertex
 10
132.1481635688714
 20
-189.4633184677893
 30
0.0
  0
VERTEX
  5
87
330
7A
100
AcDbEntity
  8
Layer 1
 62
   179
420
  2301728
370
    18
100
AcDbVertex
100
AcDb2dVertex
 10
132.1481635688714
 20
-192.4633076163448
 30
0.0
  0
VERTEX
  5
88
330
7A
100
AcDbEntity
  8
Layer 1
 62
   179
420
  2301728
370
    18
100
AcDbVertex
100
AcDb2dVertex
 10
118.3704085131795
 20
-192.4633076163448
 30
0.0
  0
VERTEX
  5
89
330
7A
100
AcDbEntity
  8
Layer 1
 62
   179
420
  2301728
370
    18
100
AcDbVertex
100
AcDb2dVertex
 10
118.3704085131795
 20
-189.4633184677893
 30
0.0
  0
VERTEX
  5
8A
330
7A
100
AcDbEntity
  8
Layer 1
 62
   179
420
  2301728
370
    18
100
AcDbVertex
100
AcDb2dVertex
 10
104.5926319256409
 20
-189.4633184677893
 30
0.0
  0
VERTEX
  5
8B
330
7A
100
AcDbEntity
  8
Layer 1
 62
   179
420
  2301728
370
    18
100
AcDbVertex
100
AcDb2dVertex
 10
104.5926319256409
 20
-192.4633076163448
 30
0.0
  0
VERTEX
  5
8C
330
7A
100
AcDbEntity
  8
Layer 1
 62
   179
420
  2301728
370
    18
100
AcDbVertex
100
AcDb2dVertex
 10
90.81485533810223
 20
-192.4633076163448
 30
0.0
  0
VERTEX
  5
8D
330
7A
100
AcDbEntity
  8
Layer 1
 62
   179
420
  2301728
370
    18
100
AcDbVertex
100
AcDb2dVertex
 10
90.81485533810223
 20
-203.0633496601358
 30
0.0
  0
VERTEX
  5
8E
330
7A
100
AcDbEntity
  8
Layer 1
 62
   179
420
  2301728
370
    18
100
AcDbVertex
100
AcDb2dVertex
 10
87.81503844432093
 20
-203.0633496601358
 30
0.0
  0
VERTEX
  5
8F
330
7A
100
AcDbEntity
  8
Layer 1
 62
   179
420
  2301728
370
    18
100
AcDbVertex
100
AcDb2dVertex
 10
87.81503844432093
 20
-216.6632947250952
 30
0.0
  0
VERTEX
  5
90
330
7A
100
AcDbEntity
  8
Layer 1
 62
   179
420
  2301728
370
    18
100
AcDbVertex
100
AcDb2dVertex
 10
90.81485533810223
 20
-216.6632947250952
 30
0.0
  0
VERTEX
  5
91
330
7A
100
AcDbEntity
  8
Layer 1
 62
   179
420
  2301728
370
    18
100
AcDbVertex
100
AcDb2dVertex
 10
90.81485533810223
 20
-230.2633259174417
 30
0.0
  0
VERTEX
  5
92
330
7A
100
AcDbEntity
  8
Layer 1
 62
   179
420
  2301728
370
    18
100
AcDbVertex
100
AcDb2dVertex
 10
87.81503844432093
 20
-230.2633259174417
 30
0.0
  0
VERTEX
  5
93
330
7A
100
AcDbEntity
  8
Layer 1
 62
   179
420
  2301728
370
    18
100
AcDbVertex
100
AcDb2dVertex
 10
87.81503844432093
 20
-243.8633571097882
 30
0.0
  0
VERTEX
  5
94
330
7A
100
AcDbEntity
  8
Layer 1
 62
   179
420
  2301728
370
    18
100
AcDbVertex
100
AcDb2dVertex
 10
90.81485533810223
 20
-243.8633571097882
 30
0.0
  0
VERTEX
  5
95
330
7A
100
AcDbEntity
  8
Layer 1
 62
   179
420
  2301728
370
    18
100
AcDbVertex
100
AcDb2dVertex
 10
90.81485533810223
 20
-257.4633452384411
 30
0.0
  0
VERTEX
  5
96
330
7A
100
AcDbEntity
  8
Layer 1
 62
   179
420
  2301728
370
    18
100
AcDbVertex
100
AcDb2dVertex
 10
87.81503844432093
 20
-257.4633452384411
 30
0.0
  0
VERTEX
  5
97
330
7A
100
AcDbEntity
  8
Layer 1
 62
   179
420
  2301728
370
    18
100
AcDbVertex
100
AcDb2dVertex
 10
87.81503844432093
 20
-271.0633333670941
 30
0.0
  0
VERTEX
  5
98
330
7A
100
AcDbEntity
  8
Layer 1
 62
   179
420
  2301728
370
    18
100
AcDbVertex
100
AcDb2dVertex
 10
90.81485533810223
 20
-271.0633333670941
 30
0.0
  0
VERTEX
  5
99
330
7A
100
AcDbEntity
  8
Layer 1
 62
   179
420
  2301728
370
    18
100
AcDbVertex
100
AcDb2dVertex
 10
90.81485533810223
 20
-284.6633645594407
 30
0.0
  0
VERTEX
  5
9A
330
7A
100
AcDbEntity
  8
Layer 1
 62
   179
420
  2301728
370
    18
100
AcDbVertex
100
AcDb2dVertex
 10
87.81503844432093
 20
-284.6633645594407
 30
0.0
  0
VERTEX
  5
9B
330
7A
100
AcDbEntity
  8
Layer 1
 62
   179
420
  2301728
370
    18
100
AcDbVertex
100
AcDb2dVertex
 10
87.81503844432093
 20
-298.2633096244001
 30
0.0
  0
VERTEX
  5
9C
330
7A
100
AcDbEntity
  8
Layer 1
 62
   179
420
  2301728
370
    18
100
AcDbVertex
100
AcDb2dVertex
 10
90.81485533810223
 20
-298.2633096244001
 30
0.0
  0
VERTEX
  5
9D
330
7A
100
AcDbEntity
  8
Layer 1
 62
   179
420
  2301728
370
    18
100
AcDbVertex
100
AcDb2dVertex
 10
90.81485533810223
 20
-311.8633408167465
 30
0.0
  0
VERTEX
  5
9E
330
7A
100
AcDbEntity
  8
Layer 1
 62
   179
420
  2301728
370
    18
100
AcDbVertex
100
AcDb2dVertex
 10
87.81503844432093
 20
-311.8633408167465
 30
0.0
  0
VERTEX
  5
9F
330
7A
100
AcDbEntity
  8
Layer 1
 62
   179
420
  2301728
370
    18
100
AcDbVertex
100
AcDb2dVertex
 10
87.81503844432093
 20
-322.4633828605375
 30
0.0
  0
VERTEX
  5
A0
330
7A
100
AcDbEntity
  8
Layer 1
 62
   179
420
  2301728
370
    18
100
AcDbVertex
100
AcDb2dVertex
 10
90.81485533810223
 20
-322.4633828605375
 30
0.0
  0
VERTEX
  5
A1
330
7A
100
AcDbEntity
  8
Layer 1
 62
   179
420
  2301728
370
    18
100
AcDbVertex
100
AcDb2dVertex
 10
90.81485533810223
 20
-322.4633828605375
 30
0.0
  0
VERTEX
  5
A2
330
7A
100
AcDbEntity
  8
Layer 1
 62
   179
420
  2301728
370
    18
100
AcDbVertex
100
AcDb2dVertex
 10
104.5926319256409
 20
-322.4633828605375
 30
0.0
  0
VERTEX
  5
A3
330
7A
100
AcDbEntity
  8
Layer 1
 62
   179
420
  2301728
370
    18
100
AcDbVertex
100
AcDb2dVertex
 10
104.5926319256409
 20
-325.4633720090931
 30
0.0
  0
VERTEX
  5
A4
330
7A
100
AcDbEntity
  8
Layer 1
 62
   179
420
  2301728
370
    18
100
AcDbVertex
100
AcDb2dVertex
 10
118.3704085131795
 20
-325.4633720090931
 30
0.0
  0
VERTEX
  5
A5
330
7A
100
AcDbEntity
  8
Layer 1
 62
   179
420
  2301728
370
    18
100
AcDbVertex
100
AcDb2dVertex
 10
118.3704085131795
 20
-322.4633828605375
 30
0.0
  0
VERTEX
  5
A6
330
7A
100
AcDbEntity
  8
Layer 1
 62
   179
420
  2301728
370
    18
100
AcDbVertex
100
AcDb2dVertex
 10
132.1481635688714
 20
-322.4633828605375
 30
0.0
  0
VERTEX
  5
A7
330
7A
100
AcDbEntity
  8
Layer 1
 62
   179
420
  2301728
370
    18
100
AcDbVertex
100
AcDb2dVertex
 10
132.1481635688714
 20
-325.4633720090931
 30
0.0
  0
VERTEX
  5
A8
330
7A
100
AcDbEntity
  8
Layer 1
 62
   179
420
  2301728
370
    18
100
AcDbVertex
100
AcDb2dVertex
 10
145.9259616882568
 20
-325.4633720090931
 30
0.0
  0
VERTEX
  5
A9
330
7A
100
AcDbEntity
  8
Layer 1
 62
   179
420
  2301728
370
    18
100
AcDbVertex
100
AcDb2dVertex
 10
145.9259616882568
 20
-322.4633828605375
 30
0.0
  0
VERTEX
  5
AA
330
7A
100
AcDbEntity
  8
Layer 1
 62
   179
420
  2301728
370
    18
100
AcDbVertex
100
AcDb2dVertex
 10
159.7037598076422
 20
-322.4633828605375
 30
0.0
  0
VERTEX
  5
AB
330
7A
100
AcDbEntity
  8
Layer 1
 62
   179
420
  2301728
370
    18
100
AcDbVertex
100
AcDb2dVertex
 10
159.7037598076422
 20
-325.4633720090931
 30
0.0
  0
VERTEX
  5
AC
330
7A
100
AcDbEntity
  8
Layer 1
 62
   179
420
  2301728
370
    18
100
AcDbVertex
100
AcDb2dVertex
 10
173.4815579270276
 20
-325.4633720090931
 30
0.0
  0
VERTEX
  5
AD
330
7A
100
AcDbEntity
  8
Layer 1
 62
   179
420
  2301728
370
    18
100
AcDbVertex
100
AcDb2dVertex
 10
173.4815579270276
 20
-322.4633828605375
 30
0.0
  0
VERTEX
  5
AE
330
7A
100
AcDbEntity
  8
Layer 1
 62
   179
420
  2301728
370
    18
100
AcDbVertex
100
AcDb2dVertex
 10
187.2593129827194
 20
-322.4633828605375
 30
0.0
  0
VERTEX
  5
AF
330
7A
100
AcDbEntity
  8
Layer 1
 62
   179
420
  2301728
370
    18
100
AcDbVertex
100
AcDb2dVertex
 10
187.2593129827194
 20
-325.4633720090931
 30
0.0
  0
VERTEX
  5
B0
330
7A
100
AcDbEntity
  8
Layer 1
 62
   179
420
  2301728
370
    18
100
AcDbVertex
100
AcDb2dVertex
 10
201.0370680384113
 20
-325.4633720090931
 30
0.0
  0
VERTEX
  5
B1
330
7A
100
AcDbEntity
  8
Layer 1
 62
   179
420
  2301728
370
    18
100
AcDbVertex
100
AcDb2dVertex
 10
201.0370680384113
 20
-322.4633828605375
 30
0.0
  0
VERTEX
  5
B2
330
7A
100
AcDbEntity
  8
Layer 1
 62
   179
420
  2301728
370
    18
100
AcDbVertex
100
AcDb2dVertex
 10
214.8148661577967
 20
-322.4633828605375
 30
0.0
  0
VERTEX
  5
B3
330
7A
100
AcDbEntity
  8
Layer 1
 62
   179
420
  2301728
370
    18
100
AcDbVertex
100
AcDb2dVertex
 10
214.8148661577967
 20
-322.4633828605375
 30
0.0
  0
VERTEX
  5
B4
330
7A
100
AcDbEntity
  8
Layer 1
 62
   179
420
  2301728
370
    18
100
AcDbVertex
100
AcDb2dVertex
 10
217.814683051578
 20
-322.4633828605375
 30
0.0
  0
VERTEX
  5
B5
330
7A
100
AcDbEntity
  8
Layer 1
 62
   179
420
  2301728
370
    18
100
AcDbVertex
100
AcDb2dVertex
 10
217.814683051578
 20
-311.8633408167465
 30
0.0
  0
VERTEX
  5
B6
330
7A
100
AcDbEntity
  8
Layer 1
 62
   179
420
  2301728
370
    18
100
AcDbVertex
100
AcDb2dVertex
 10
214.8146939030224
 20
-311.8633408167465
 30
0.0
  0
VERTEX
  5
B7
330
7A
100
AcDbEntity
  8
Layer 1
 62
   179
420
  2301728
370
    18
100
AcDbVertex
100
AcDb2dVertex
 10
214.8146939030224
 20
-298.2633096244001
 30
0.0
  0
VERTEX
  5
B8
330
7A
100
AcDbEntity
  8
Layer 1
 62
   179
420
  2301728
370
    18
100
AcDbVertex
100
AcDb2dVertex
 10
217.814683051578
 20
-298.2633096244001
 30
0.0
  0
VERTEX
  5
B9
330
7A
100
AcDbEntity
  8
Layer 1
 62
   179
420
  2301728
370
    18
100
AcDbVertex
100
AcDb2dVertex
 10
217.814683051578
 20
-284.6633645594407
 30
0.0
  0
VERTEX
  5
BA
330
7A
100
AcDbEntity
  8
Layer 1
 62
   179
420
  2301728
370
    18
100
AcDbVertex
100
AcDb2dVertex
 10
214.8146939030224
 20
-284.6633645594407
 30
0.0
  0
VERTEX
  5
BB
330
7A
100
AcDbEntity
  8
Layer 1
 62
   179
420
  2301728
370
    18
100
AcDbVertex
100
AcDb2dVertex
 10
214.8146939030224
 20
-271.0633333670941
 30
0.0
  0
VERTEX
  5
BC
330
7A
100
AcDbEntity
  8
Layer 1
 62
   179
420
  2301728
370
    18
100
AcDbVertex
100
AcDb2dVertex
 10
217.814683051578
 20
-271.0633333670941
 30
0.0
  0
VERTEX
  5
BD
330
7A
100
AcDbEntity
  8
Layer 1
 62
   179
420
  2301728
370
    18
100
AcDbVertex
100
AcDb2dVertex
 10
217.814683051578
 20
-257.4633452384411
 30
0.0
  0
VERTEX
  5
BE
330
7A
100
AcDbEntity
  8
Layer 1
 62
   179
420
  2301728
370
    18
100
AcDbVertex
100
AcDb2dVertex
 10
214.8146939030224
 20
-257.4633452384411
 30
0.0
  0
VERTEX
  5
BF
330
7A
100
AcDbEntity
  8
Layer 1
 62
   179
420
  2301728
370
    18
100
AcDbVertex
100
AcDb2dVertex
 10
214.8146939030224
 20
-243.8633571097882
 30
0.0
  0
VERTEX
  5
C0
330
7A
100
AcDbEntity
  8
Layer 1
 62
   179
420
  2301728
370
    18
100
AcDbVertex
100
AcDb2dVertex
 10
217.814683051578
 20
-243.8633571097882
 30
0.0
  0
VERTEX
  5
C1
330
7A
100
AcDbEntity
  8
Layer 1
 62
   179
420
  2301728
370
    18
100
AcDbVertex
100
AcDb2dVertex
 10
217.814683051578
 20
-230.2633259174417
 30
0.0
  0
VERTEX
  5
C2
330
7A
100
AcDbEntity
  8
Layer 1
 62
   179
420
  2301728
370
    18
100
AcDbVertex
100
AcDb2dVertex
 10
214.8146939030224
 20
-230.2633259174417
 30
0.0
  0
VERTEX
  5
C3
330
7A
100
AcDbEntity
  8
Layer 1
 62
   179
420
  2301728
370
    18
100
AcDbVertex
100
AcDb2dVertex
 10
214.8146939030224
 20
-216.6632947250952
 30
0.0
  0
VERTEX
  5
C4
330
7A
100
AcDbEntity
  8
Layer 1
 62
   179
420
  2301728
370
    18
100
AcDbVertex
100
AcDb2dVertex
 10
217.814683051578
 20
-216.6632947250952
 30
0.0
  0
VERTEX
  5
C5
330
7A
100
AcDbEntity
  8
Layer 1
 62
   179
420
  2301728
370
    18
100
AcDbVertex
100
AcDb2dVertex
 10
217.814683051578
 20
-203.0633496601358
 30
0.0
  0
VERTEX
  5
C6
330
7A
100
AcDbEntity
  8
Layer 1
 62
   179
420
  2301728
370
    18
100
AcDbVertex
100
AcDb2dVertex
 10
214.8146939030224
 20
-203.0633496601358
 30
0.0
  0
VERTEX
  5
C7
330
7A
100
AcDbEntity
  8
Layer 1
 62
   179
420
  2301728
370
    18
100
AcDbVertex
100
AcDb2dVertex
 10
214.8146939030224
 20
-192.4633076163448
 30
0.0
  0
SEQEND
  5
C8
330
7A
100
AcDbEntity
  8
Layer 1
 62
   179
420
  2301728
370
    18
  0
POLYLINE
  5
C9
330
1F
100
AcDbEntity
  8
Layer 1
 62
   254
420
 13750996
370
    18
100
AcDb2dPolyline
 66
     1
 10
0.0
 20
0.0
 30
0.0
  0
VERTEX
  5
CA
330
C9
100
AcDbEntity
  8
Layer 1
 62
   254
420
 13750996
370
    18
100
AcDbVertex
100
AcDb2dVertex
 10
405.778691251115
 20
-255.2410880214157
 30
0.0
  0
VERTEX
  5
CB
330
C9
100
AcDbEntity
  8
Layer 1
 62
   254
420
 13750996
370
    18
100
AcDbVertex
100
AcDb2dVertex
 10
373.7786912591158
 20
-255.2410880214157
 30
0.0
  0
VERTEX
  5
CC
330
C9
100
AcDbEntity
  8
Layer 1
 62
   254
420
 13750996
370
    18
100
AcDbVertex
100
AcDb2dVertex
 10
373.7786912591158
 20
-223.2410880294152
 30
0.0
  0
VERTEX
  5
CD
330
C9
100
AcDbEntity
  8
Layer 1
 62
   254
420
 13750996
370
    18
100
AcDbVertex
100
AcDb2dVertex
 10
405.778691251115
 20
-223.2410880294152
 30
0.0
  0
VERTEX
  5
CE
330
C9
100
AcDbEntity
  8
Layer 1
 62
   254
420
 13750996
370
    18
100
AcDbVertex
100
AcDb2dVertex
 10
405.778691251115
 20
-255.2410880214157
 30
0.0
  0
SEQEND
  5
CF
330
C9
100
AcDbEntity
  8
Layer 1
 62
   254
420
 13750996
370
    18
  0
INSERT
  5
D1
330
1F
100
AcDbEntity
  8
Layer 1
100
AcDbBlockReference
  2
block 2
 10
0.0
 20
0.0
 30
0.0
  0
POLYLINE
  5
D6
330
1F
100
AcDbEntity
  8
Layer 1
 62
   179
420
  2301728
370
    18
100
AcDb2dPolyline
 66
     1
 10
0.0
 20
0.0
 30
0.0
  0
VERTEX
  5
D7
330
D6
100
AcDbEntity
  8
Layer 1
 62
   179
420
  2301728
370
    18
100
AcDbVertex
100
AcDb2dVertex
 10
90.81485533810223
 20
-203.0633496601358
 30
0.0
  0
VERTEX
  5
D8
330
D6
100
AcDbEntity
  8
Layer 1
 62
   179
420
  2301728
370
    18
100
AcDbVertex
100
AcDb2dVertex
 10
90.81485533810223
 20
-189.4633184677893
 30
0.0
  0
VERTEX
  5
D9
330
D6
100
AcDbEntity
  8
Layer 1
 62
   179
420
  2301728
370
    18
100
AcDbVertex
100
AcDb2dVertex
 10
84.81500623207181
 20
-189.4633184677893
 30
0.0
  0
VERTEX
  5
DA
330
D6
100
AcDbEntity
  8
Layer 1
 62
   179
420
  2301728
370
    18
100
AcDbVertex
100
AcDb2dVertex
 10
84.81500623207181
 20
-192.4633076163448
 30
0.0
  0
VERTEX
  5
DB
330
D6
100
AcDbEntity
  8
Layer 1
 62
   179
420
  2301728
370
    18
100
AcDbVertex
100
AcDb2dVertex
 10
71.01500877865332
 20
-192.4633076163448
 30
0.0
  0
VERTEX
  5
DC
330
D6
100
AcDbEntity
  8
Layer 1
 62
   179
420
  2301728
370
    18
100
AcDbVertex
100
AcDb2dVertex
 10
71.01500877865332
 20
-189.4633184677893
 30
0.0
  0
VERTEX
  5
DD
330
D6
100
AcDbEntity
  8
Layer 1
 62
   179
420
  2301728
370
    18
100
AcDbVertex
100
AcDb2dVertex
 10
57.21501132523483
 20
-189.4633184677893
 30
0.0
  0
VERTEX
  5
DE
330
D6
100
AcDbEntity
  8
Layer 1
 62
   179
420
  2301728
370
    18
100
AcDbVertex
100
AcDb2dVertex
 10
57.21501132523483
 20
-192.4633076163448
 30
0.0
  0
VERTEX
  5
DF
330
D6
100
AcDbEntity
  8
Layer 1
 62
   179
420
  2301728
370
    18
100
AcDbVertex
100
AcDb2dVertex
 10
43.41501387181634
 20
-192.4633076163448
 30
0.0
  0
VERTEX
  5
E0
330
D6
100
AcDbEntity
  8
Layer 1
 62
   179
420
  2301728
370
    18
100
AcDbVertex
100
AcDb2dVertex
 10
43.41501387181634
 20
-189.4633184677893
 30
0.0
  0
VERTEX
  5
E1
330
D6
100
AcDbEntity
  8
Layer 1
 62
   179
420
  2301728
370
    18
100
AcDbVertex
100
AcDb2dVertex
 10
29.61501641839785
 20
-189.4633184677893
 30
0.0
  0
VERTEX
  5
E2
330
D6
100
AcDbEntity
  8
Layer 1
 62
   179
420
  2301728
370
    18
100
AcDbVertex
100
AcDb2dVertex
 10
29.61501641839785
 20
-192.4633076163448
 30
0.0
  0
VERTEX
  5
E3
330
D6
100
AcDbEntity
  8
Layer 1
 62
   179
420
  2301728
370
    18
100
AcDbVertex
100
AcDb2dVertex
 10
15.81501896497936
 20
-192.4633076163448
 30
0.0
  0
VERTEX
  5
E4
330
D6
100
AcDbEntity
  8
Layer 1
 62
   179
420
  2301728
370
    18
100
AcDbVertex
100
AcDb2dVertex
 10
15.81501896497936
 20
-189.4633184677893
 30
0.0
  0
VERTEX
  5
E5
330
D6
100
AcDbEntity
  8
Layer 1
 62
   179
420
  2301728
370
    18
100
AcDbVertex
100
AcDb2dVertex
 10
9.815019136021462
 20
-189.4633184677893
 30
0.0
  0
VERTEX
  5
E6
330
D6
100
AcDbEntity
  8
Layer 1
 62
   179
420
  2301728
370
    18
100
AcDbVertex
100
AcDb2dVertex
 10
9.815019136021462
 20
-337.4632424759282
 30
0.0
  0
VERTEX
  5
E7
330
D6
100
AcDbEntity
  8
Layer 1
 62
   179
420
  2301728
370
    18
100
AcDbVertex
100
AcDb2dVertex
 10
87.81500359588435
 20
-325.9078735284708
 30
0.0
  0
VERTEX
  5
E8
330
D6
100
AcDbEntity
  8
Layer 1
 62
   179
420
  2301728
370
    18
100
AcDbVertex
100
AcDb2dVertex
 10
87.81486618954668
 20
-325.4633720090931
 30
0.0
  0
VERTEX
  5
E9
330
D6
100
AcDbEntity
  8
Layer 1
 62
   179
420
  2301728
370
    18
100
AcDbVertex
100
AcDb2dVertex
 10
87.81486618954668
 20
-311.8633408167465
 30
0.0
  0
VERTEX
  5
EA
330
D6
100
AcDbEntity
  8
Layer 1
 62
   179
420
  2301728
370
    18
100
AcDbVertex
100
AcDb2dVertex
 10
90.81485533810223
 20
-311.8633408167465
 30
0.0
  0
VERTEX
  5
EB
330
D6
100
AcDbEntity
  8
Layer 1
 62
   179
420
  2301728
370
    18
100
AcDbVertex
100
AcDb2dVertex
 10
90.81485533810223
 20
-298.2633096244001
 30
0.0
  0
VERTEX
  5
EC
330
D6
100
AcDbEntity
  8
Layer 1
 62
   179
420
  2301728
370
    18
100
AcDbVertex
100
AcDb2dVertex
 10
87.81486618954668
 20
-298.2633096244001
 30
0.0
  0
VERTEX
  5
ED
330
D6
100
AcDbEntity
  8
Layer 1
 62
   179
420
  2301728
370
    18
100
AcDbVertex
100
AcDb2dVertex
 10
87.81486618954668
 20
-284.6633645594407
 30
0.0
  0
VERTEX
  5
EE
330
D6
100
AcDbEntity
  8
Layer 1
 62
   179
420
  2301728
370
    18
100
AcDbVertex
100
AcDb2dVertex
 10
90.81485533810223
 20
-284.6633645594407
 30
0.0
  0
VERTEX
  5
EF
330
D6
100
AcDbEntity
  8
Layer 1
 62
   179
420
  2301728
370
    18
100
AcDbVertex
100
AcDb2dVertex
 10
90.81485533810223
 20
-271.0633333670941
 30
0.0
  0
VERTEX
  5
F0
330
D6
100
AcDbEntity
  8
Layer 1
 62
   179
420
  2301728
370
    18
100
AcDbVertex
100
AcDb2dVertex
 10
87.81486618954668
 20
-271.0633333670941
 30
0.0
  0
VERTEX
  5
F1
330
D6
100
AcDbEntity
  8
Layer 1
 62
   179
420
  2301728
370
    18
100
AcDbVertex
100
AcDb2dVertex
 10
87.81486618954668
 20
-257.4633452384411
 30
0.0
  0
VERTEX
  5
F2
330
D6
100
AcDbEntity
  8
Layer 1
 62
   179
420
  2301728
370
    18
100
AcDbVertex
100
AcDb2dVertex
 10
90.81485533810223
 20
-257.4633452384411
 30
0.0
  0
VERTEX
  5
F3
330
D6
100
AcDbEntity
  8
Layer 1
 62
   179
420
  2301728
370
    18
100
AcDbVertex
100
AcDb2dVertex
 10
90.81485533810223
 20
-243.8633571097882
 30
0.0
  0
VERTEX
  5
F4
330
D6
100
AcDbEntity
  8
Layer 1
 62
   179
420
  2301728
370
    18
100
AcDbVertex
100
AcDb2dVertex
 10
87.81486618954668
 20
-243.8633571097882
 30
0.0
  0
VERTEX
  5
F5
330
D6
100
AcDbEntity
  8
Layer 1
 62
   179
420
  2301728
370
    18
100
AcDbVertex
100
AcDb2dVertex
 10
87.81486618954668
 20
-230.2633259174417
 30
0.0
  0
VERTEX
  5
F6
330
D6
100
AcDbEntity
  8
Layer 1
 62
   179
420
  2301728
370
    18
100
AcDbVertex
100
AcDb2dVertex
 10
90.81485533810223
 20
-230.2633259174417
 30
0.0
  0
VERTEX
  5
F7
330
D6
100
AcDbEntity
  8
Layer 1
 62
   179
420
  2301728
370
    18
100
AcDbVertex
100
AcDb2dVertex
 10
90.81485533810223
 20
-216.6632947250952
 30
0.0
  0
VERTEX
  5
F8
330
D6
100
AcDbEntity
  8
Layer 1
 62
   179
420
  2301728
370
    18
100
AcDbVertex
100
AcDb2dVertex
 10
87.81486618954668
 20
-216.6632947250952
 30
0.0
  0
VERTEX
  5
F9
330
D6
100
AcDbEntity
  8
Layer 1
 62
   179
420
  2301728
370
    18
100
AcDbVertex
100
AcDb2dVertex
 10
87.81486618954668
 20
-203.0633496601358
 30
0.0
  0
VERTEX
  5
FA
330
D6
100
AcDbEntity
  8
Layer 1
 62
   179
420
  2301728
370
    18
100
AcDbVertex
100
AcDb2dVertex
 10
90.81485533810223
 20
-203.0633496601358
 30
0.0
  0
SEQEND
  5
FB
330
D6
100
AcDbEntity
  8
Layer 1
 62
   179
420
  2301728
370
    18
  0
POLYLINE
  5
FC
330
1F
100
AcDbEntity
  8
Layer 1
 62
   179
420
  2301728
370
    18
100
AcDb2dPolyline
 66
     1
 10
0.0
 20
0.0
 30
0.0
  0
VERTEX
  5
FD
330
FC
100
AcDbEntity
  8
Layer 1
 62
   179
420
  2301728
370
    18
100
AcDbVertex
100
AcDb2dVertex
 10
23.36470887058977
 20
-325.7133044904809
 30
0.0
  0
VERTEX
  5
FE
330
FC
100
AcDbEntity
  8
Layer 1
 62
   179
420
  2301728
370
    18
100
AcDbVertex
100
AcDb2dVertex
 10
23.36470887058977
 20
-322.2130874774671
 30
0.0
  0
VERTEX
  5
FF
330
FC
100
AcDbEntity
  8
Layer 1
 62
   179
420
  2301728
370
    18
100
AcDbVertex
100
AcDb2dVertex
 10
37.66495572031332
 20
-322.2130874774671
 30
0.0
  0
VERTEX
  5
100
330
FC
100
AcDbEntity
  8
Layer 1
 62
   179
420
  2301728
370
    18
100
AcDbVertex
100
AcDb2dVertex
 10
37.66495572031332
 20
-325.7133044904809
 30
0.0
  0
VERTEX
  5
101
330
FC
100
AcDbEntity
  8
Layer 1
 62
   179
420
  2301728
370
    18
100
AcDbVertex
100
AcDb2dVertex
 10
23.36470887058977
 20
-325.7133044904809
 30
0.0
  0
SEQEND
  5
102
330
FC
100
AcDbEntity
  8
Layer 1
 62
   179
420
  2301728
370
    18
  0
SPLINE
  5
103
330
1F
100
AcDbEntity
  8
Layer 1
 62
   179
420
  2301728
370
    18
100
AcDbSpline
210
0.0
220
0.0
230
1.0
 70
    11
 71
     3
 72
    29
 73
    25
 74
     0
 42
0.0000000001
 43
0.0000000001
 12
1.0
 22
0.0
 32
0.0
 13
1.0
 23
0.0
 33
0.0
 40
0.0
 40
0.0
 40
0.0
 40
0.0
 40
1.0
 40
1.0
 40
1.0
 40
2.0
 40
2.0
 40
2.0
 40
3.0
 40
3.0
 40
3.0
 40
4.0
 40
4.0
 40
4.0
 40
5.0
 40
5.0
 40
5.0
 40
6.0
 40
6.0
 40
6.0
 40
7.0
 40
7.0
 40
7.0
 40
8.0
 40
8.0
 40
8.0
 40
8.0
 10
246.4258208823413
 20
-255.463310234961
 30
0.0
 10
246.4258208823413
 20
-255.463310234961
 30
0.0
 10
246.2032783627613
 20
-255.4633102362117
 30
0.0
 10
246.2032783627613
 20
-255.4633102362117
 30
0.0
 10
245.4363046450662
 20
-255.4633102405214
 30
0.0
 10
244.814549597062
 20
-254.8415551959573
 30
0.0
 10
244.8145495971287
 20
-254.0745814782622
 30
0.0
 10
244.8145495971287
 20
-254.0745814782622
 30
0.0
 10
244.8145496020865
 20
-196.852039024788
 30
0.0
 10
244.8145496020865
 20
-196.852039024788
 30
0.0
 10
244.8145496021532
 20
-196.0850653078425
 30
0.0
 10
245.43630464663
 20
-195.4633102623928
 30
0.0
 10
246.2032783635756
 20
-195.4633102611268
 30
0.0
 10
246.2032783635756
 20
-195.4633102611268
 30
0.0
 10
246.4258208465166
 20
-195.4633102607597
 30
0.0
 10
246.4258208465166
 20
-195.4633102607597
 30
0.0
 10
247.1927945712312
 20
-195.4633102594937
 30
0.0
 10
247.8145496233634
 20
-196.0850653105036
 30
0.0
 10
247.8145496234815
 20
-196.8520390352182
 30
0.0
 10
247.8145496234815
 20
-196.8520390352182
 30
0.0
 10
247.8145496322875
 20
-254.0745814769981
 30
0.0
 10
247.8145496322875
 20
-254.0745814769981
 30
0.0
 10
247.8145496324056
 20
-254.8415551885906
 30
0.0
 10
247.1927945939338
 20
-255.4633102306514
 30
0.0
 10
246.4258208823413
 20
-255.463310234961
 30
0.0
  0
SPLINE
  5
104
330
1F
100
AcDbEntity
  8
Layer 1
 62
   179
420
  2301728
370
    18
100
AcDbSpline
210
0.0
220
0.0
230
1.0
 70
    11
 71
     3
 72
    29
 73
    25
 74
     0
 42
0.0000000001
 43
0.0000000001
 12
1.0
 22
0.0
 32
0.0
 13
1.0
 23
0.0
 33
0.0
 40
0.0
 40
0.0
 40
0.0
 40
0.0
 40
1.0
 40
1.0
 40
1.0
 40
2.0
 40
2.0
 40
2.0
 40
3.0
 40
3.0
 40
3.0
 40
4.0
 40
4.0
 40
4.0
 40
5.0
 40
5.0
 40
5.0
 40
6.0
 40
6.0
 40
6.0
 40
7.0
 40
7.0
 40
7.0
 40
8.0
 40
8.0
 40
8.0
 40
8.0
 10
240.4258208678092
 20
-255.4633102362983
 30
0.0
 10
240.4258208678092
 20
-255.4633102362983
 30
0.0
 10
240.2032783456791
 20
-255.4633102348751
 30
0.0
 10
240.2032783456791
 20
-255.4633102348751
 30
0.0
 10
239.4363046345056
 20
-255.4633102299693
 30
0.0
 10
238.8145495966845
 20
-254.8415551880907
 30
0.0
 10
238.8145495967833
 20
-254.0745814769172
 30
0.0
 10
238.8145495967833
 20
-254.0745814769172
 30
0.0
 10
238.8145496041898
 20
-196.8520390066305
 30
0.0
 10
238.8145496041898
 20
-196.8520390066305
 30
0.0
 10
238.8145496042886
 20
-196.0850652924487
 30
0.0
 10
239.4363046514214
 20
-195.4633102518407
 30
0.0
 10
240.2032783656038
 20
-195.4633102597901
 30
0.0
 10
240.2032783656038
 20
-195.4633102597901
 30
0.0
 10
240.425820845102
 20
-195.4633102620964
 30
0.0
 10
240.425820845102
 20
-195.4633102620964
 30
0.0
 10
241.1927945730797
 20
-195.4633102700458
 30
0.0
 10
241.8145496229788
 20
-196.0850653262669
 30
0.0
 10
241.8145496231296
 20
-196.8520390542446
 30
0.0
 10
241.8145496231296
 20
-196.8520390542446
 30
0.0
 10
241.8145496343902
 20
-254.0745814783264
 30
0.0
 10
241.8145496343902
 20
-254.0745814783264
 30
0.0
 10
241.814549634541
 20
-254.8415551964302
 30
0.0
 10
241.192794585913
 20
-255.4633102412041
 30
0.0
 10
240.4258208678092
 20
-255.4633102362983
 30
0.0
  0
SPLINE
  5
105
330
1F
100
AcDbEntity
  8
Layer 1
 62
   179
420
  2301728
370
    18
100
AcDbSpline
210
0.0
220
0.0
230
1.0
 70
    11
 71
     3
 72
    29
 73
    25
 74
     0
 42
0.0000000001
 43
0.0000000001
 12
1.0
 22
0.0
 32
0.0
 13
1.0
 23
0.0
 33
0.0
 40
0.0
 40
0.0
 40
0.0
 40
0.0
 40
1.0
 40
1.0
 40
1.0
 40
2.0
 40
2.0
 40
2.0
 40
3.0
 40
3.0
 40
3.0
 40
4.0
 40
4.0
 40
4.0
 40
5.0
 40
5.0
 40
5.0
 40
6.0
 40
6.0
 40
6.0
 40
7.0
 40
7.0
 40
7.0
 40
8.0
 40
8.0
 40
8.0
 40
8.0
 10
234.4258208600547
 20
-255.463310234961
 30
0.0
 10
234.4258208600547
 20
-255.463310234961
 30
0.0
 10
234.2032783619337
 20
-255.4633102362111
 30
0.0
 10
234.2032783619337
 20
-255.4633102362111
 30
0.0
 10
233.4363046442483
 20
-255.4633102405214
 30
0.0
 10
232.814549596271
 20
-254.8415551959303
 30
0.0
 10
232.8145495964032
 20
-254.0745814782449
 30
0.0
 10
232.8145495964032
 20
-254.0745814782449
 30
0.0
 10
232.8145496062911
 20
-196.8520390247707
 30
0.0
 10
232.8145496062911
 20
-196.8520390247707
 30
0.0
 10
232.814549606424
 20
-196.0850653078155
 30
0.0
 10
233.4363046509271
 20
-195.4633102623928
 30
0.0
 10
234.2032783678823
 20
-195.4633102611268
 30
0.0
 10
234.2032783678823
 20
-195.4633102611268
 30
0.0
 10
234.4258208492491
 20
-195.4633102607597
 30
0.0
 10
234.4258208492491
 20
-195.4633102607597
 30
0.0
 10
235.1927945720188
 20
-195.4633102594937
 30
0.0
 10
235.814549622593
 20
-196.0850653088923
 30
0.0
 10
235.8145496227772
 20
-196.8520390316619
 30
0.0
 10
235.8145496227772
 20
-196.8520390316619
 30
0.0
 10
235.8145496364922
 20
-254.0745814503862
 30
0.0
 10
235.8145496364922
 20
-254.0745814503862
 30
0.0
 10
235.8145496366763
 20
-254.8415551766563
 30
0.0
 10
235.1927945863248
 20
-255.4633102306507
 30
0.0
 10
234.4258208600547
 20
-255.463310234961
 30
0.0
  0
SPLINE
  5
106
330
1F
100
AcDbEntity
  8
Layer 1
 62
   179
420
  2301728
370
    18
100
AcDbSpline
210
0.0
220
0.0
230
1.0
 70
    11
 71
     3
 72
    29
 73
    25
 74
     0
 42
0.0000000001
 43
0.0000000001
 12
1.0
 22
0.0
 32
0.0
 13
1.0
 23
0.0
 33
0.0
 40
0.0
 40
0.0
 40
0.0
 40
0.0
 40
1.0
 40
1.0
 40
1.0
 40
2.0
 40
2.0
 40
2.0
 40
3.0
 40
3.0
 40
3.0
 40
4.0
 40
4.0
 40
4.0
 40
5.0
 40
5.0
 40
5.0
 40
6.0
 40
6.0
 40
6.0
 40
7.0
 40
7.0
 40
7.0
 40
8.0
 40
8.0
 40
8.0
 40
8.0
 10
228.4258208601045
 20
-255.463310234961
 30
0.0
 10
228.4258208601045
 20
-255.463310234961
 30
0.0
 10
228.2032783667225
 20
-255.4633102362111
 30
0.0
 10
228.2032783667225
 20
-255.4633102362111
 30
0.0
 10
227.4363046577122
 20
-255.4633102405214
 30
0.0
 10
226.8145496167006
 20
-254.8415552030878
 30
0.0
 10
226.8145496165972
 20
-254.0745814940775
 30
0.0
 10
226.8145496165972
 20
-254.0745814940775
 30
0.0
 10
226.8145496088802
 20
-196.8520390248323
 30
0.0
 10
226.8145496088802
 20
-196.8520390248323
 30
0.0
 10
226.8145496087762
 20
-196.0850653079118
 30
0.0
 10
227.436304653185
 20
-195.4633102623928
 30
0.0
 10
228.2032783701056
 20
-195.4633102611268
 30
0.0
 10
228.2032783701056
 20
-195.4633102611268
 30
0.0
 10
228.4258208560041
 20
-195.4633102607597
 30
0.0
 10
228.4258208560041
 20
-195.4633102607597
 30
0.0
 10
229.192794574722
 20
-195.4633102594937
 30
0.0
 10
229.8145496219459
 20
-196.0850653057325
 30
0.0
 10
229.8145496218946
 20
-196.8520390244505
 30
0.0
 10
229.8145496218946
 20
-196.8520390244505
 30
0.0
 10
229.8145496180534
 20
-254.0745814693009
 30
0.0
 10
229.8145496180534
 20
-254.0745814693009
 30
0.0
 10
229.814549618002
 20
-254.8415551851934
 30
0.0
 10
229.1927945759971
 20
-255.4633102306507
 30
0.0
 10
228.4258208601045
 20
-255.463310234961
 30
0.0
  0
SPLINE
  5
107
330
1F
100
AcDbEntity
  8
Layer 1
 62
   179
420
  2301728
370
    18
100
AcDbSpline
210
0.0
220
0.0
230
1.0
 70
    11
 71
     3
 72
    29
 73
    25
 74
     0
 42
0.0000000001
 43
0.0000000001
 12
1.0
 22
0.0
 32
0.0
 13
1.0
 23
0.0
 33
0.0
 40
0.0
 40
0.0
 40
0.0
 40
0.0
 40
1.0
 40
1.0
 40
1.0
 40
2.0
 40
2.0
 40
2.0
 40
3.0
 40
3.0
 40
3.0
 40
4.0
 40
4.0
 40
4.0
 40
5.0
 40
5.0
 40
5.0
 40
6.0
 40
6.0
 40
6.0
 40
7.0
 40
7.0
 40
7.0
 40
8.0
 40
8.0
 40
8.0
 40
8.0
 10
222.4258208659181
 20
-255.4633102362983
 30
0.0
 10
222.4258208659181
 20
-255.4633102362983
 30
0.0
 10
222.2032783444104
 20
-255.4633102348751
 30
0.0
 10
222.2032783444104
 20
-255.4633102348751
 30
0.0
 10
221.4363046332517
 20
-255.4633102299693
 30
0.0
 10
220.8145495954704
 20
-254.8415551880503
 30
0.0
 10
220.8145495956693
 20
-254.0745814768916
 30
0.0
 10
220.8145495956693
 20
-254.0745814768916
 30
0.0
 10
220.8145496104964
 20
-196.852039024754
 30
0.0
 10
220.8145496104964
 20
-196.852039024754
 30
0.0
 10
220.8145496106953
 20
-196.0850653077886
 30
0.0
 10
221.4363046552254
 20
-195.4633102623928
 30
0.0
 10
222.2032783721909
 20
-195.4633102611268
 30
0.0
 10
222.2032783721909
 20
-195.4633102611268
 30
0.0
 10
222.4258208556753
 20
-195.4633102607597
 30
0.0
 10
222.4258208556753
 20
-195.4633102607597
 30
0.0
 10
223.1927945744388
 20
-195.4633102594937
 30
0.0
 10
223.814549621784
 20
-196.0850653056093
 30
0.0
 10
223.8145496220343
 20
-196.8520390243728
 30
0.0
 10
223.8145496220343
 20
-196.8520390243728
 30
0.0
 10
223.8145496406962
 20
-254.0745814699497
 30
0.0
 10
223.8145496406962
 20
-254.0745814699497
 30
0.0
 10
223.8145496409464
 20
-254.8415551926512
 30
0.0
 10
223.1927945886197
 20
-255.4633102412041
 30
0.0
 10
222.4258208659181
 20
-255.4633102362983
 30
0.0
  0
POLYLINE
  5
108
330
1F
100
AcDbEntity
  8
Layer 1
 62
   179
420
  2301728
370
    18
100
AcDb2dPolyline
 66
     1
 10
0.0
 20
0.0
 30
0.0
  0
VERTEX
  5
109
330
108
100
AcDbEntity
  8
Layer 1
 62
   179
420
  2301728
370
    18
100
AcDbVertex
100
AcDb2dVertex
 10
289.8146809990728
 20
-189.4633184677893
 30
0.0
  0
VERTEX
  5
10A
330
108
100
AcDbEntity
  8
Layer 1
 62
   179
420
  2301728
370
    18
100
AcDbVertex
100
AcDb2dVertex
 10
289.8146809990728
 20
-192.4633076163448
 30
0.0
  0
VERTEX
  5
10B
330
108
100
AcDbEntity
  8
Layer 1
 62
   179
420
  2301728
370
    18
100
AcDbVertex
100
AcDb2dVertex
 10
276.0146620138075
 20
-192.4633076163448
 30
0.0
  0
VERTEX
  5
10C
330
108
100
AcDbEntity
  8
Layer 1
 62
   179
420
  2301728
370
    18
100
AcDbVertex
100
AcDb2dVertex
 10
276.0146620138075
 20
-189.4633184677893
 30
0.0
  0
VERTEX
  5
10D
330
108
100
AcDbEntity
  8
Layer 1
 62
   179
420
  2301728
370
    18
100
AcDbVertex
100
AcDb2dVertex
 10
262.2146860922358
 20
-189.4633184677893
 30
0.0
  0
VERTEX
  5
10E
330
108
100
AcDbEntity
  8
Layer 1
 62
   179
420
  2301728
370
    18
100
AcDbVertex
100
AcDb2dVertex
 10
262.2146860922358
 20
-192.4633076163448
 30
0.0
  0
VERTEX
  5
10F
330
108
100
AcDbEntity
  8
Layer 1
 62
   179
420
  2301728
370
    18
100
AcDbVertex
100
AcDb2dVertex
 10
248.4147101706641
 20
-192.4633076163448
 30
0.0
  0
VERTEX
  5
110
330
108
100
AcDbEntity
  8
Layer 1
 62
   179
420
  2301728
370
    18
100
AcDbVertex
100
AcDb2dVertex
 10
248.4147101706641
 20
-189.4633184677893
 30
0.0
  0
VERTEX
  5
111
330
108
100
AcDbEntity
  8
Layer 1
 62
   179
420
  2301728
370
    18
100
AcDbVertex
100
AcDb2dVertex
 10
234.6146911853988
 20
-189.4633184677893
 30
0.0
  0
VERTEX
  5
112
330
108
100
AcDbEntity
  8
Layer 1
 62
   179
420
  2301728
370
    18
100
AcDbVertex
100
AcDb2dVertex
 10
234.6146911853988
 20
-192.4633076163448
 30
0.0
  0
VERTEX
  5
113
330
108
100
AcDbEntity
  8
Layer 1
 62
   179
420
  2301728
370
    18
100
AcDbVertex
100
AcDb2dVertex
 10
220.8146722001335
 20
-192.4633076163448
 30
0.0
  0
VERTEX
  5
114
330
108
100
AcDbEntity
  8
Layer 1
 62
   179
420
  2301728
370
    18
100
AcDbVertex
100
AcDb2dVertex
 10
220.8146722001335
 20
-189.4633184677893
 30
0.0
  0
VERTEX
  5
115
330
108
100
AcDbEntity
  8
Layer 1
 62
   179
420
  2301728
370
    18
100
AcDbVertex
100
AcDb2dVertex
 10
214.8146939030224
 20
-189.4633184677893
 30
0.0
  0
VERTEX
  5
116
330
108
100
AcDbEntity
  8
Layer 1
 62
   179
420
  2301728
370
    18
100
AcDbVertex
100
AcDb2dVertex
 10
214.8146939030224
 20
-203.0633496601358
 30
0.0
  0
VERTEX
  5
117
330
108
100
AcDbEntity
  8
Layer 1
 62
   179
420
  2301728
370
    18
100
AcDbVertex
100
AcDb2dVertex
 10
217.814683051578
 20
-203.0633496601358
 30
0.0
  0
VERTEX
  5
118
330
108
100
AcDbEntity
  8
Layer 1
 62
   179
420
  2301728
370
    18
100
AcDbVertex
100
AcDb2dVertex
 10
217.814683051578
 20
-216.6632947250952
 30
0.0
  0
VERTEX
  5
119
330
108
100
AcDbEntity
  8
Layer 1
 62
   179
420
  2301728
370
    18
100
AcDbVertex
100
AcDb2dVertex
 10
214.8146939030224
 20
-216.6632947250952
 30
0.0
  0
VERTEX
  5
11A
330
108
100
AcDbEntity
  8
Layer 1
 62
   179
420
  2301728
370
    18
100
AcDbVertex
100
AcDb2dVertex
 10
214.8146939030224
 20
-230.2633259174417
 30
0.0
  0
VERTEX
  5
11B
330
108
100
AcDbEntity
  8
Layer 1
 62
   179
420
  2301728
370
    18
100
AcDbVertex
100
AcDb2dVertex
 10
217.814683051578
 20
-230.2633259174417
 30
0.0
  0
VERTEX
  5
11C
330
108
100
AcDbEntity
  8
Layer 1
 62
   179
420
  2301728
370
    18
100
AcDbVertex
100
AcDb2dVertex
 10
217.814683051578
 20
-243.8633571097882
 30
0.0
  0
VERTEX
  5
11D
330
108
100
AcDbEntity
  8
Layer 1
 62
   179
420
  2301728
370
    18
100
AcDbVertex
100
AcDb2dVertex
 10
214.8146939030224
 20
-243.8633571097882
 30
0.0
  0
VERTEX
  5
11E
330
108
100
AcDbEntity
  8
Layer 1
 62
   179
420
  2301728
370
    18
100
AcDbVertex
100
AcDb2dVertex
 10
214.8146939030224
 20
-257.4633452384411
 30
0.0
  0
VERTEX
  5
11F
330
108
100
AcDbEntity
  8
Layer 1
 62
   179
420
  2301728
370
    18
100
AcDbVertex
100
AcDb2dVertex
 10
217.814683051578
 20
-257.4633452384411
 30
0.0
  0
VERTEX
  5
120
330
108
100
AcDbEntity
  8
Layer 1
 62
   179
420
  2301728
370
    18
100
AcDbVertex
100
AcDb2dVertex
 10
217.814683051578
 20
-271.0633333670941
 30
0.0
  0
VERTEX
  5
121
330
108
100
AcDbEntity
  8
Layer 1
 62
   179
420
  2301728
370
    18
100
AcDbVertex
100
AcDb2dVertex
 10
214.8146939030224
 20
-271.0633333670941
 30
0.0
  0
VERTEX
  5
122
330
108
100
AcDbEntity
  8
Layer 1
 62
   179
420
  2301728
370
    18
100
AcDbVertex
100
AcDb2dVertex
 10
214.8146939030224
 20
-284.6633645594407
 30
0.0
  0
VERTEX
  5
123
330
108
100
AcDbEntity
  8
Layer 1
 62
   179
420
  2301728
370
    18
100
AcDbVertex
100
AcDb2dVertex
 10
217.814683051578
 20
-284.6633645594407
 30
0.0
  0
VERTEX
  5
124
330
108
100
AcDbEntity
  8
Layer 1
 62
   179
420
  2301728
370
    18
100
AcDbVertex
100
AcDb2dVertex
 10
217.814683051578
 20
-298.2633096244001
 30
0.0
  0
VERTEX
  5
125
330
108
100
AcDbEntity
  8
Layer 1
 62
   179
420
  2301728
370
    18
100
AcDbVertex
100
AcDb2dVertex
 10
214.8146939030224
 20
-298.2633096244001
 30
0.0
  0
VERTEX
  5
126
330
108
100
AcDbEntity
  8
Layer 1
 62
   179
420
  2301728
370
    18
100
AcDbVertex
100
AcDb2dVertex
 10
214.8146939030224
 20
-311.8633408167465
 30
0.0
  0
VERTEX
  5
127
330
108
100
AcDbEntity
  8
Layer 1
 62
   179
420
  2301728
370
    18
100
AcDbVertex
100
AcDb2dVertex
 10
217.814683051578
 20
-311.8633408167465
 30
0.0
  0
VERTEX
  5
128
330
108
100
AcDbEntity
  8
Layer 1
 62
   179
420
  2301728
370
    18
100
AcDbVertex
100
AcDb2dVertex
 10
217.814683051578
 20
-325.4633720090931
 30
0.0
  0
VERTEX
  5
129
330
108
100
AcDbEntity
  8
Layer 1
 62
   179
420
  2301728
370
    18
100
AcDbVertex
100
AcDb2dVertex
 10
217.814549602493
 20
-325.9078741147213
 30
0.0
  0
VERTEX
  5
12A
330
108
100
AcDbEntity
  8
Layer 1
 62
   179
420
  2301728
370
    18
100
AcDbVertex
100
AcDb2dVertex
 10
295.8145301051032
 20
-337.4632424759282
 30
0.0
  0
VERTEX
  5
12B
330
108
100
AcDbEntity
  8
Layer 1
 62
   179
420
  2301728
370
    18
100
AcDbVertex
100
AcDb2dVertex
 10
295.8145301051032
 20
-189.4633184677893
 30
0.0
  0
VERTEX
  5
12C
330
108
100
AcDbEntity
  8
Layer 1
 62
   179
420
  2301728
370
    18
100
AcDbVertex
100
AcDb2dVertex
 10
289.8146809990728
 20
-189.4633184677893
 30
0.0
  0
SEQEND
  5
12D
330
108
100
AcDbEntity
  8
Layer 1
 62
   179
420
  2301728
370
    18
  0
POLYLINE
  5
12E
330
1F
100
AcDbEntity
  8
Layer 1
 62
   179
420
  2301728
370
    18
100
AcDb2dPolyline
 66
     1
 10
0.0
 20
0.0
 30
0.0
  0
VERTEX
  5
12F
330
12E
100
AcDbEntity
  8
Layer 1
 62
   179
420
  2301728
370
    18
100
AcDbVertex
100
AcDb2dVertex
 10
282.2648403705234
 20
-325.7133044935091
 30
0.0
  0
VERTEX
  5
130
330
12E
100
AcDbEntity
  8
Layer 1
 62
   179
420
  2301728
370
    18
100
AcDbVertex
100
AcDb2dVertex
 10
282.2648403706805
 20
-322.2130874804953
 30
0.0
  0
VERTEX
  5
131
330
12E
100
AcDbEntity
  8
Layer 1
 62
   179
420
  2301728
370
    18
100
AcDbVertex
100
AcDb2dVertex
 10
267.964593520957
 20
-322.213087479853
 30
0.0
  0
VERTEX
  5
132
330
12E
100
AcDbEntity
  8
Layer 1
 62
   179
420
  2301728
370
    18
100
AcDbVertex
100
AcDb2dVertex
 10
267.9645935207998
 20
-325.7133044928668
 30
0.0
  0
VERTEX
  5
133
330
12E
100
AcDbEntity
  8
Layer 1
 62
   179
420
  2301728
370
    18
100
AcDbVertex
100
AcDb2dVertex
 10
282.2648403705234
 20
-325.7133044935091
 30
0.0
  0
SEQEND
  5
134
330
12E
100
AcDbEntity
  8
Layer 1
 62
   179
420
  2301728
370
    18
  0
POLYLINE
  5
135
330
1F
100
AcDbEntity
  8
Layer 1
 62
   179
420
  2301728
370
    18
100
AcDb2dPolyline
 66
     1
 10
0.0
 20
0.0
 30
0.0
  0
VERTEX
  5
136
330
135
100
AcDbEntity
  8
Layer 1
 62
   179
420
  2301728
370
    18
100
AcDbVertex
100
AcDb2dVertex
 10
204.314862713701
 20
-397.4631372077203
 30
0.0
  0
VERTEX
  5
137
330
135
100
AcDbEntity
  8
Layer 1
 62
   179
420
  2301728
370
    18
100
AcDbVertex
100
AcDb2dVertex
 10
101.3148627394497
 20
-397.4631372077203
 30
0.0
  0
VERTEX
  5
138
330
135
100
AcDbEntity
  8
Layer 1
 62
   179
420
  2301728
370
    18
100
AcDbVertex
100
AcDb2dVertex
 10
101.3148627394497
 20
-340.4631372219717
 30
0.0
  0
VERTEX
  5
139
330
135
100
AcDbEntity
  8
Layer 1
 62
   179
420
  2301728
370
    18
100
AcDbVertex
100
AcDb2dVertex
 10
204.314862713701
 20
-340.4631372219717
 30
0.0
  0
VERTEX
  5
13A
330
135
100
AcDbEntity
  8
Layer 1
 62
   179
420
  2301728
370
    18
100
AcDbVertex
100
AcDb2dVertex
 10
204.314862713701
 20
-397.4631372077203
 30
0.0
  0
SEQEND
  5
13B
330
135
100
AcDbEntity
  8
Layer 1
 62
   179
420
  2301728
370
    18
  0
SPLINE
  5
13C
330
1F
100
AcDbEntity
  8
Layer 1
 62
   179
420
  2301728
370
    18
100
AcDbSpline
210
0.0
220
0.0
230
1.0
 70
    11
 71
     3
 72
    17
 73
    13
 74
     0
 42
0.0000000001
 43
0.0000000001
 12
1.0
 22
0.0
 32
0.0
 13
1.0
 23
0.0
 33
0.0
 40
0.0
 40
0.0
 40
0.0
 40
0.0
 40
1.0
 40
1.0
 40
1.0
 40
2.0
 40
2.0
 40
2.0
 40
3.0
 40
3.0
 40
3.0
 40
4.0
 40
4.0
 40
4.0
 40
4.0
 10
204.314862713701
 20
-331.4048038909009
 30
0.0
 10
204.314862713701
 20
-333.613942889549
 30
0.0
 10
202.5240017133487
 20
-335.4048038899012
 30
0.0
 10
200.3148627147006
 20
-335.4048038899012
 30
0.0
 10
198.1057237160525
 20
-335.4048038899012
 30
0.0
 10
196.3148627157002
 20
-333.613942889549
 30
0.0
 10
196.3148627157002
 20
-331.4048038909009
 30
0.0
 10
196.3148627157002
 20
-329.1956648922528
 30
0.0
 10
198.1057237160525
 20
-327.4048038919005
 30
0.0
 10
200.3148627147006
 20
-327.4048038919005
 30
0.0
 10
202.5240017133487
 20
-327.4048038919005
 30
0.0
 10
204.314862713701
 20
-329.1956648922528
 30
0.0
 10
204.314862713701
 20
-331.4048038909009
 30
0.0
  0
POLYLINE
  5
13D
330
1F
100
AcDbEntity
  8
Layer 1
 62
   179
420
  2301728
370
    18
100
AcDb2dPolyline
 66
     1
 10
0.0
 20
0.0
 30
0.0
  0
VERTEX
  5
13E
330
13D
100
AcDbEntity
  8
Layer 1
 62
   179
420
  2301728
370
    18
100
AcDbVertex
100
AcDb2dVertex
 10
90.81485533810223
 20
-322.4633828605375
 30
0.0
  0
VERTEX
  5
13F
330
13D
100
AcDbEntity
  8
Layer 1
 62
   179
420
  2301728
370
    18
100
AcDbVertex
100
AcDb2dVertex
 10
90.81485533810223
 20
-375.8631380283942
 30
0.0
  0
VERTEX
  5
140
330
13D
100
AcDbEntity
  8
Layer 1
 62
   179
420
  2301728
370
    18
100
AcDbVertex
100
AcDb2dVertex
 10
87.81503844432093
 20
-375.8631380283942
 30
0.0
  0
VERTEX
  5
141
330
13D
100
AcDbEntity
  8
Layer 1
 62
   179
420
  2301728
370
    18
100
AcDbVertex
100
AcDb2dVertex
 10
87.81503844432093
 20
-389.6631570136594
 30
0.0
  0
VERTEX
  5
142
330
13D
100
AcDbEntity
  8
Layer 1
 62
   179
420
  2301728
370
    18
100
AcDbVertex
100
AcDb2dVertex
 10
90.81485533810223
 20
-389.6631570136594
 30
0.0
  0
VERTEX
  5
143
330
13D
100
AcDbEntity
  8
Layer 1
 62
   179
420
  2301728
370
    18
100
AcDbVertex
100
AcDb2dVertex
 10
90.81485533810223
 20
-403.4631759989247
 30
0.0
  0
VERTEX
  5
144
330
13D
100
AcDbEntity
  8
Layer 1
 62
   179
420
  2301728
370
    18
100
AcDbVertex
100
AcDb2dVertex
 10
214.8148661577967
 20
-403.4631759989247
 30
0.0
  0
VERTEX
  5
145
330
13D
100
AcDbEntity
  8
Layer 1
 62
   179
420
  2301728
370
    18
100
AcDbVertex
100
AcDb2dVertex
 10
214.8148661577967
 20
-389.6631570136594
 30
0.0
  0
VERTEX
  5
146
330
13D
100
AcDbEntity
  8
Layer 1
 62
   179
420
  2301728
370
    18
100
AcDbVertex
100
AcDb2dVertex
 10
217.814683051578
 20
-389.6631570136594
 30
0.0
  0
VERTEX
  5
147
330
13D
100
AcDbEntity
  8
Layer 1
 62
   179
420
  2301728
370
    18
100
AcDbVertex
100
AcDb2dVertex
 10
217.814683051578
 20
-375.8631380283942
 30
0.0
  0
VERTEX
  5
148
330
13D
100
AcDbEntity
  8
Layer 1
 62
   179
420
  2301728
370
    18
100
AcDbVertex
100
AcDb2dVertex
 10
214.8148661577967
 20
-375.8631380283942
 30
0.0
  0
VERTEX
  5
149
330
13D
100
AcDbEntity
  8
Layer 1
 62
   179
420
  2301728
370
    18
100
AcDbVertex
100
AcDb2dVertex
 10
214.8148661577967
 20
-322.4633828605375
 30
0.0
  0
VERTEX
  5
14A
330
13D
100
AcDbEntity
  8
Layer 1
 62
   179
420
  2301728
370
    18
100
AcDbVertex
100
AcDb2dVertex
 10
201.0370680384113
 20
-322.4633828605375
 30
0.0
  0
VERTEX
  5
14B
330
13D
100
AcDbEntity
  8
Layer 1
 62
   179
420
  2301728
370
    18
100
AcDbVertex
100
AcDb2dVertex
 10
201.0370680384113
 20
-325.4633720090931
 30
0.0
  0
VERTEX
  5
14C
330
13D
100
AcDbEntity
  8
Layer 1
 62
   179
420
  2301728
370
    18
100
AcDbVertex
100
AcDb2dVertex
 10
187.2593129827194
 20
-325.4633720090931
 30
0.0
  0
VERTEX
  5
14D
330
13D
100
AcDbEntity
  8
Layer 1
 62
   179
420
  2301728
370
    18
100
AcDbVertex
100
AcDb2dVertex
 10
187.2593129827194
 20
-322.4633828605375
 30
0.0
  0
VERTEX
  5
14E
330
13D
100
AcDbEntity
  8
Layer 1
 62
   179
420
  2301728
370
    18
100
AcDbVertex
100
AcDb2dVertex
 10
173.4815579270276
 20
-322.4633828605375
 30
0.0
  0
VERTEX
  5
14F
330
13D
100
AcDbEntity
  8
Layer 1
 62
   179
420
  2301728
370
    18
100
AcDbVertex
100
AcDb2dVertex
 10
173.4815579270276
 20
-325.4633720090931
 30
0.0
  0
VERTEX
  5
150
330
13D
100
AcDbEntity
  8
Layer 1
 62
   179
420
  2301728
370
    18
100
AcDbVertex
100
AcDb2dVertex
 10
159.7037598076422
 20
-325.4633720090931
 30
0.0
  0
VERTEX
  5
151
330
13D
100
AcDbEntity
  8
Layer 1
 62
   179
420
  2301728
370
    18
100
AcDbVertex
100
AcDb2dVertex
 10
159.7037598076422
 20
-322.4633828605375
 30
0.0
  0
VERTEX
  5
152
330
13D
100
AcDbEntity
  8
Layer 1
 62
   179
420
  2301728
370
    18
100
AcDbVertex
100
AcDb2dVertex
 10
145.9259616882568
 20
-322.4633828605375
 30
0.0
  0
VERTEX
  5
153
330
13D
100
AcDbEntity
  8
Layer 1
 62
   179
420
  2301728
370
    18
100
AcDbVertex
100
AcDb2dVertex
 10
145.9259616882568
 20
-325.4633720090931
 30
0.0
  0
VERTEX
  5
154
330
13D
100
AcDbEntity
  8
Layer 1
 62
   179
420
  2301728
370
    18
100
AcDbVertex
100
AcDb2dVertex
 10
132.1481635688714
 20
-325.4633720090931
 30
0.0
  0
VERTEX
  5
155
330
13D
100
AcDbEntity
  8
Layer 1
 62
   179
420
  2301728
370
    18
100
AcDbVertex
100
AcDb2dVertex
 10
132.1481635688714
 20
-322.4633828605375
 30
0.0
  0
VERTEX
  5
156
330
13D
100
AcDbEntity
  8
Layer 1
 62
   179
420
  2301728
370
    18
100
AcDbVertex
100
AcDb2dVertex
 10
118.3704085131795
 20
-322.4633828605375
 30
0.0
  0
VERTEX
  5
157
330
13D
100
AcDbEntity
  8
Layer 1
 62
   179
420
  2301728
370
    18
100
AcDbVertex
100
AcDb2dVertex
 10
118.3704085131795
 20
-325.4633720090931
 30
0.0
  0
VERTEX
  5
158
330
13D
100
AcDbEntity
  8
Layer 1
 62
   179
420
  2301728
370
    18
100
AcDbVertex
100
AcDb2dVertex
 10
104.5926319256409
 20
-325.4633720090931
 30
0.0
  0
VERTEX
  5
159
330
13D
100
AcDbEntity
  8
Layer 1
 62
   179
420
  2301728
370
    18
100
AcDbVertex
100
AcDb2dVertex
 10
104.5926319256409
 20
-322.4633828605375
 30
0.0
  0
VERTEX
  5
15A
330
13D
100
AcDbEntity
  8
Layer 1
 62
   179
420
  2301728
370
    18
100
AcDbVertex
100
AcDb2dVertex
 10
90.81485533810223
 20
-322.4633828605375
 30
0.0
  0
SEQEND
  5
15B
330
13D
100
AcDbEntity
  8
Layer 1
 62
   179
420
  2301728
370
    18
  0
SPLINE
  5
15C
330
1F
100
AcDbEntity
  8
Layer 1
 62
   179
420
  2301728
370
    18
100
AcDbSpline
210
0.0
220
0.0
230
1.0
 70
    11
 71
     3
 72
    17
 73
    13
 74
     0
 42
0.0000000001
 43
0.0000000001
 12
1.0
 22
0.0
 32
0.0
 13
1.0
 23
0.0
 33
0.0
 40
0.0
 40
0.0
 40
0.0
 40
0.0
 40
1.0
 40
1.0
 40
1.0
 40
2.0
 40
2.0
 40
2.0
 40
3.0
 40
3.0
 40
3.0
 40
4.0
 40
4.0
 40
4.0
 40
4.0
 10
141.7682292155597
 20
-351.3604144542215
 30
0.0
 10
141.7682292155597
 20
-353.3486395530066
 30
0.0
 10
140.1564543152436
 20
-354.9604144533201
 30
0.0
 10
138.1682292164602
 20
-354.9604144533201
 30
0.0
 10
136.1800041176771
 20
-354.9604144533201
 30
0.0
 10
134.5682292173604
 20
-353.3486395530066
 30
0.0
 10
134.5682292173604
 20
-351.3604144542215
 30
0.0
 10
134.5682292173604
 20
-349.3721893554385
 30
0.0
 10
136.1800041176771
 20
-347.7604144551217
 30
0.0
 10
138.1682292164602
 20
-347.7604144551217
 30
0.0
 10
140.1564543152436
 20
-347.7604144551217
 30
0.0
 10
141.7682292155597
 20
-349.3721893554385
 30
0.0
 10
141.7682292155597
 20
-351.3604144542215
 30
0.0
  0
SPLINE
  5
15D
330
1F
100
AcDbEntity
  8
Layer 1
 62
   179
420
  2301728
370
    18
100
AcDbSpline
210
0.0
220
0.0
230
1.0
 70
    11
 71
     3
 72
    17
 73
    13
 74
     0
 42
0.0000000001
 43
0.0000000001
 12
1.0
 22
0.0
 32
0.0
 13
1.0
 23
0.0
 33
0.0
 40
0.0
 40
0.0
 40
0.0
 40
0.0
 40
1.0
 40
1.0
 40
1.0
 40
2.0
 40
2.0
 40
2.0
 40
3.0
 40
3.0
 40
3.0
 40
4.0
 40
4.0
 40
4.0
 40
4.0
 10
150.598390267807
 20
-351.3604144542215
 30
0.0
 10
150.598390267807
 20
-353.3486395530066
 30
0.0
 10
148.9866153674909
 20
-354.9604144533201
 30
0.0
 10
146.9983902687072
 20
-354.9604144533201
 30
0.0
 10
145.0101651699241
 20
-354.9604144533201
 30
0.0
 10
143.3983902696073
 20
-353.3486395530066
 30
0.0
 10
143.3983902696073
 20
-351.3604144542215
 30
0.0
 10
143.3983902696073
 20
-349.3721893554385
 30
0.0
 10
145.0101651699241
 20
-347.7604144551217
 30
0.0
 10
146.9983902687072
 20
-347.7604144551217
 30
0.0
 10
148.9866153674909
 20
-347.7604144551217
 30
0.0
 10
150.598390267807
 20
-349.3721893554385
 30
0.0
 10
150.598390267807
 20
-351.3604144542215
 30
0.0
  0
ENDSEC
  0
SECTION
  2
OBJECTS
  0
DICTIONARY
  5
C
330
0
100
AcDbDictionary
281
     1
  3
ACAD_GROUP
350
D
  3
ACAD_LAYOUT
350
1A
  3
ACAD_MATERIAL
350
3B
  3
ACAD_MLEADERSTYLE
350
15F
  3
ACAD_MLINESTYLE
350
17
  3
ACAD_PLOTSETTINGS
350
19
  3
ACAD_PLOTSTYLENAME
350
E
  3
ACAD_TABLESTYLE
350
15E
  3
ACAD_VISUALSTYLE
350
2A
  0
SUN
  5
3F
330
29
100
AcDbSun
 90
        1
290
     0
 63
     7
421
 16777215
 40
1.0
291
     1
 91
  2455826
 92
 54000000
292
     0
 70
     2
 71
   256
280
     1
  0
DICTIONARY
  5
D
102
{ACAD_REACTORS
330
C
102
}
330
C
100
AcDbDictionary
281
     1
  0
DICTIONARY
  5
1A
102
{ACAD_REACTORS
330
C
102
}
330
C
100
AcDbDictionary
281
     1
  3
Layout1
350
1E
  3
Layout2
350
26
  3
Model
350
22
  0
DICTIONARY
  5
3B
102
{ACAD_REACTORS
330
C
102
}
330
C
100
AcDbDictionary
281
     1
  3
ByBlock
350
3D
  3
ByLayer
350
3C
  3
Global
350
3E
  0
DICTIONARY
  5
15F
102
{ACAD_REACTORS
330
C
102
}
330
C
100
AcDbDictionary
281
     1
  0
DICTIONARY
  5
17
102
{ACAD_REACTORS
330
C
102
}
330
C
100
AcDbDictionary
281
     1
  3
Standard
350
18
  0
DICTIONARY
  5
19
102
{ACAD_REACTORS
330
C
102
}
330
C
100
AcDbDictionary
281
     1
  0
ACDBDICTIONARYWDFLT
  5
E
102
{ACAD_REACTORS
330
C
102
}
330
C
100
AcDbDictionary
281
     1
  3
Normal
350
F
100
AcDbDictionaryWithDefault
340
F
  0
DICTIONARY
  5
15E
102
{ACAD_REACTORS
330
C
102
}
330
C
100
AcDbDictionary
281
     1
  0
DICTIONARY
  5
2A
102
{ACAD_REACTORS
330
C
102
}
330
C
100
AcDbDictionary
281
     1
  3
2dWireframe
350
2F
  3
3D Hidden
350
31
  3
3dWireframe
350
30
  3
Basic
350
32
  3
Brighten
350
36
  3
ColorChange
350
3A
  3
Conceptual
350
34
  3
Dim
350
35
  3
Facepattern
350
39
  3
Flat
350
2B
  3
FlatWithEdges
350
2C
  3
Gouraud
350
2D
  3
GouraudWithEdges
350
2E
  3
Linepattern
350
38
  3
Realistic
350
33
  3
Thicken
350
37
  0
LAYOUT
  5
1E
102
{ACAD_REACTORS
330
1A
102
}
330
1A
100
AcDbPlotSettings
  1

  2
none_device
  4

  6

 40
0.0
 41
0.0
 42
0.0
 43
0.0
 44
0.0
 45
0.0
 46
0.0
 47
0.0
 48
0.0
 49
0.0
140
0.0
141
0.0
142
1.0
143
1.0
 70
   688
 72
     0
 73
     0
 74
     5
  7

 75
    16
 76
     0
 77
     2
 78
   300
147
1.0
148
0.0
149
0.0
100
AcDbLayout
  1
Layout1
 70
     1
 71
     1
 10
0.0
 20
0.0
 11
12.0
 21
9.0
 12
0.0
 22
0.0
 32
0.0
 14
1.000000000000000E+20
 24
1.000000000000000E+20
 34
1.000000000000000E+20
 15
-1.000000000000000E+20
 25
-1.000000000000000E+20
 35
-1.000000000000000E+20
146
0.0
 13
0.0
 23
0.0
 33
0.0
 16
1.0
 26
0.0
 36
0.0
 17
0.0
 27
1.0
 37
0.0
 76
     0
330
1B
  0
LAYOUT
  5
26
102
{ACAD_REACTORS
330
1A
102
}
330
1A
100
AcDbPlotSettings
  1

  2
none_device
  4

  6

 40
0.0
 41
0.0
 42
0.0
 43
0.0
 44
0.0
 45
0.0
 46
0.0
 47
0.0
 48
0.0
 49
0.0
140
0.0
141
0.0
142
1.0
143
1.0
 70
   688
 72
     0
 73
     0
 74
     5
  7

 75
    16
 76
     0
 77
     2
 78
   300
147
1.0
148
0.0
149
0.0
100
AcDbLayout
  1
Layout2
 70
     1
 71
     2
 10
0.0
 20
0.0
 11
0.0
 21
0.0
 12
0.0
 22
0.0
 32
0.0
 14
0.0
 24
0.0
 34
0.0
 15
0.0
 25
0.0
 35
0.0
146
0.0
 13
0.0
 23
0.0
 33
0.0
 16
1.0
 26
0.0
 36
0.0
 17
0.0
 27
1.0
 37
0.0
 76
     0
330
23
  0
LAYOUT
  5
22
102
{ACAD_REACTORS
330
1A
102
}
330
1A
100
AcDbPlotSettings
  1

  2
none_device
  4

  6

 40
0.0
 41
0.0
 42
0.0
 43
0.0
 44
0.0
 45
0.0
 46
0.0
 47
0.0
 48
0.0
 49
0.0
140
0.0
141
0.0
142
1.0
143
1.0
 70
  1712
 72
     0
 73
     0
 74
     0
  7

 75
     0
 76
     0
 77
     2
 78
   300
147
1.0
148
0.0
149
0.0
100
AcDbLayout
  1
Model
 70
     1
 71
     0
 10
0.0
 20
0.0
 11
12.0
 21
9.0
 12
0.0
 22
0.0
 32
0.0
 14
1.000000000000000E+20
 24
1.000000000000000E+20
 34
1.000000000000000E+20
 15
-1.000000000000000E+20
 25
-1.000000000000000E+20
 35
-1.000000000000000E+20
146
0.0
 13
0.0
 23
0.0
 33
0.0
 16
1.0
 26
0.0
 36
0.0
 17
0.0
 27
1.0
 37
0.0
 76
     0
330
1F
331
29
  0
MATERIAL
  5
3D
102
{ACAD_REACTORS
330
3B
102
}
330
3B
100
AcDbMaterial
  1
ByBlock
 72
     1
 94
      127
  0
MATERIAL
  5
3C
102
{ACAD_REACTORS
330
3B
102
}
330
3B
100
AcDbMaterial
  1
ByLayer
 72
     1
 94
      127
  0
MATERIAL
  5
3E
102
{ACAD_REACTORS
330
3B
102
}
330
3B
100
AcDbMaterial
  1
Global
 72
     1
 94
      127
  0
MLINESTYLE
  5
18
102
{ACAD_REACTORS
330
17
102
}
330
17
100
AcDbMlineStyle
  2
Standard
 70
     0
  3

 62
   256
 51
90.0
 52
90.0
 71
     2
 49
0.5
 62
   256
  6
BYLAYER
 49
-0.5
 62
   256
  6
BYLAYER
  0
ACDBPLACEHOLDER
  5
F
102
{ACAD_REACTORS
330
E
102
}
330
E
  0
VISUALSTYLE
  5
2F
102
{ACAD_REACTORS
330
2A
102
}
330
2A
100
AcDbVisualStyle
  2
2dWireframe
 70
     4
177
     2
291
     0
 71
     0
176
     1
 72
     2
176
     1
 73
     0
176
     1
 90
        0
176
     1
 40
-0.6
176
     1
 41
-30.0
176
     1
 62
     5
 63
     7
421
 16777215
176
     1
 74
     1
176
     1
 91
        4
176
     1
 64
     7
176
     1
 65
   257
176
     1
 75
     1
176
     1
175
     1
176
     1
 42
1.0
176
     1
 92
        0
176
     1
 66
   257
176
     1
 43
1.0
176
     1
 76
     1
176
     1
 77
     6
176
     1
 78
     2
176
     1
 67
     7
176
     1
 79
     5
176
     1
170
     0
176
     1
171
     0
176
     1
290
     0
176
     1
 93
        1
176
     1
 44
0.0
176
     1
173
     0
176
     1
  0
VISUALSTYLE
  5
31
102
{ACAD_REACTORS
330
2A
102
}
330
2A
100
AcDbVisualStyle
  2
3D Hidden
 70
     6
177
     2
291
     0
 71
     1
176
     1
 72
     2
176
     1
 73
     2
176
     1
 90
        0
176
     1
 40
-0.6
176
     1
 41
-30.0
176
     1
 62
     5
 63
     7
421
 16777215
176
     1
 74
     2
176
     1
 91
        2
176
     1
 64
     7
176
     1
 65
   257
176
     1
 75
     2
176
     1
175
     1
176
     1
 42
40.0
176
     1
 92
        0
176
     1
 66
   257
176
     1
 43
1.0
176
     1
 76
     1
176
     1
 77
     6
176
     1
 78
     2
176
     1
 67
     7
176
     1
 79
     3
176
     1
170
     0
176
     1
171
     0
176
     1
290
     0
176
     1
 93
        1
176
     1
 44
0.0
176
     1
173
     0
176
     1
  0
VISUALSTYLE
  5
30
102
{ACAD_REACTORS
330
2A
102
}
330
2A
100
AcDbVisualStyle
  2
3dWireframe
 70
     5
177
     2
291
     0
 71
     0
176
     1
 72
     2
176
     1
 73
     0
176
     1
 90
        0
176
     1
 40
-0.6
176
     1
 41
-30.0
176
     1
 62
     5
 63
     7
421
 16777215
176
     1
 74
     1
176
     1
 91
        4
176
     1
 64
     7
176
     1
 65
   257
176
     1
 75
     1
176
     1
175
     1
176
     1
 42
1.0
176
     1
 92
        0
176
     1
 66
   257
176
     1
 43
1.0
176
     1
 76
     1
176
     1
 77
     6
176
     1
 78
     2
176
     1
 67
     7
176
     1
 79
     5
176
     1
170
     0
176
     1
171
     0
176
     1
290
     0
176
     1
 93
        1
176
     1
 44
0.0
176
     1
173
     0
176
     1
  0
VISUALSTYLE
  5
32
102
{ACAD_REACTORS
330
2A
102
}
330
2A
100
AcDbVisualStyle
  2
Basic
 70
     7
177
     2
291
     1
 71
     1
176
     1
 72
     0
176
     1
 73
     1
176
     1
 90
        0
176
     1
 40
-0.6
176
     1
 41
-30.0
176
     1
 62
     5
 63
     7
421
 16777215
176
     1
 74
     0
176
     1
 91
        4
176
     1
 64
     7
176
     1
 65
   257
176
     1
 75
     1
176
     1
175
     1
176
     1
 42
1.0
176
     1
 92
        8
176
     1
 66
     7
176
     1
 43
1.0
176
     1
 76
     1
176
     1
 77
     6
176
     1
 78
     2
176
     1
 67
     7
176
     1
 79
     5
176
     1
170
     0
176
     1
171
     0
176
     1
290
     0
176
     1
 93
        1
176
     1
 44
0.0
176
     1
173
     0
176
     1
  0
VISUALSTYLE
  5
36
102
{ACAD_REACTORS
330
2A
102
}
330
2A
100
AcDbVisualStyle
  2
Brighten
 70
    12
177
     2
291
     1
 71
     2
176
     1
 72
     2
176
     1
 73
     0
176
     1
 90
        0
176
     1
 40
-0.6
176
     1
 41
-30.0
176
     1
 62
     5
 63
     7
421
 16777215
176
     1
 74
     1
176
     1
 91
        4
176
     1
 64
     7
176
     1
 65
   257
176
     1
 75
     1
176
     1
175
     1
176
     1
 42
1.0
176
     1
 92
        8
176
     1
 66
     7
176
     1
 43
1.0
176
     1
 76
     1
176
     1
 77
     6
176
     1
 78
     2
176
     1
 67
     7
176
     1
 79
     5
176
     1
170
     0
176
     1
171
     0
176
     1
290
     0
176
     1
 93
        1
176
     1
 44
50.0
176
     1
173
     0
176
     1
  0
VISUALSTYLE
  5
3A
102
{ACAD_REACTORS
330
2A
102
}
330
2A
100
AcDbVisualStyle
  2
ColorChange
 70
    16
177
     2
291
     1
 71
     2
176
     1
 72
     2
176
     1
 73
     3
176
     1
 90
        0
176
     1
 40
-0.6
176
     1
 41
-30.0
176
     1
 62
     5
 63
     8
421
  8421504
176
     1
 74
     1
176
     1
 91
        4
176
     1
 64
     7
176
     1
 65
   257
176
     1
 75
     1
176
     1
175
     1
176
     1
 42
1.0
176
     1
 92
        8
176
     1
 66
     8
424
  8421504
176
     1
 43
1.0
176
     1
 76
     1
176
     1
 77
     6
176
     1
 78
     2
176
     1
 67
     7
176
     1
 79
     5
176
     1
170
     0
176
     1
171
     0
176
     1
290
     0
176
     1
 93
        1
176
     1
 44
0.0
176
     1
173
     0
176
     1
  0
VISUALSTYLE
  5
34
102
{ACAD_REACTORS
330
2A
102
}
330
2A
100
AcDbVisualStyle
  2
Conceptual
 70
     9
177
     2
291
     0
 71
     3
176
     1
 72
     2
176
     1
 73
     0
176
     1
 90
        0
176
     1
 40
-0.6
176
     1
 41
-30.0
176
     1
 62
     5
 63
     7
421
 16777215
176
     1
 74
     2
176
     1
 91
        2
176
     1
 64
     7
176
     1
 65
   257
176
     1
 75
     1
176
     1
175
     1
176
     1
 42
40.0
176
     1
 92
        8
176
     1
 66
     7
176
     1
 43
1.0
176
     1
 76
     1
176
     1
 77
     6
176
     1
 78
     2
176
     1
 67
     7
176
     1
 79
     3
176
     1
170
     0
176
     1
171
     0
176
     1
290
     0
176
     1
 93
        1
176
     1
 44
0.0
176
     1
173
     0
176
     1
  0
VISUALSTYLE
  5
35
102
{ACAD_REACTORS
330
2A
102
}
330
2A
100
AcDbVisualStyle
  2
Dim
 70
    11
177
     2
291
     1
 71
     2
176
     1
 72
     2
176
     1
 73
     0
176
     1
 90
        0
176
     1
 40
-0.6
176
     1
 41
-30.0
176
     1
 62
     5
 63
     7
421
 16777215
176
     1
 74
     1
176
     1
 91
        4
176
     1
 64
     7
176
     1
 65
   257
176
     1
 75
     1
176
     1
175
     1
176
     1
 42
1.0
176
     1
 92
        8
176
     1
 66
     7
176
     1
 43
1.0
176
     1
 76
     1
176
     1
 77
     6
176
     1
 78
     2
176
     1
 67
     7
176
     1
 79
     5
176
     1
170
     0
176
     1
171
     0
176
     1
290
     0
176
     1
 93
        1
176
     1
 44
-50.0
176
     1
173
     0
176
     1
  0
VISUALSTYLE
  5
39
102
{ACAD_REACTORS
330
2A
102
}
330
2A
100
AcDbVisualStyle
  2
Facepattern
 70
    15
177
     2
291
     1
 71
     2
176
     1
 72
     2
176
     1
 73
     0
176
     1
 90
        0
176
     1
 40
-0.6
176
     1
 41
-30.0
176
     1
 62
     5
 63
     7
421
 16777215
176
     1
 74
     1
176
     1
 91
        4
176
     1
 64
     7
176
     1
 65
   257
176
     1
 75
     1
176
     1
175
     1
176
     1
 42
1.0
176
     1
 92
        8
176
     1
 66
     7
176
     1
 43
1.0
176
     1
 76
     1
176
     1
 77
     6
176
     1
 78
     2
176
     1
 67
     7
176
     1
 79
     5
176
     1
170
     0
176
     1
171
     0
176
     1
290
     0
176
     1
 93
        1
176
     1
 44
0.0
176
     1
173
     0
176
     1
  0
VISUALSTYLE
  5
2B
102
{ACAD_REACTORS
330
2A
102
}
330
2A
100
AcDbVisualStyle
  2
Flat
 70
     0
177
     2
291
     1
 71
     2
176
     1
 72
     1
176
     1
 73
     1
176
     1
 90
        2
176
     1
 40
-0.6
176
     1
 41
30.0
176
     1
 62
     5
 63
     7
421
 16777215
176
     1
 74
     0
176
     1
 91
        4
176
     1
 64
     7
176
     1
 65
   257
176
     1
 75
     1
176
     1
175
     1
176
     1
 42
1.0
176
     1
 92
        8
176
     1
 66
     7
176
     1
 43
1.0
176
     1
 76
     1
176
     1
 77
     6
176
     1
 78
     2
176
     1
 67
     7
176
     1
 79
     5
176
     1
170
     0
176
     1
171
     0
176
     1
290
     0
176
     1
 93
       13
176
     1
 44
0.0
176
     1
173
     0
176
     1
  0
VISUALSTYLE
  5
2C
102
{ACAD_REACTORS
330
2A
102
}
330
2A
100
AcDbVisualStyle
  2
FlatWithEdges
 70
     1
177
     2
291
     1
 71
     2
176
     1
 72
     1
176
     1
 73
     1
176
     1
 90
        2
176
     1
 40
-0.6
176
     1
 41
30.0
176
     1
 62
     5
 63
     7
421
 16777215
176
     1
 74
     1
176
     1
 91
        4
176
     1
 64
     7
176
     1
 65
   257
176
     1
 75
     1
176
     1
175
     1
176
     1
 42
1.0
176
     1
 92
        0
176
     1
 66
   257
176
     1
 43
1.0
176
     1
 76
     1
176
     1
 77
     6
176
     1
 78
     2
176
     1
 67
     7
176
     1
 79
     5
176
     1
170
     0
176
     1
171
     0
176
     1
290
     0
176
     1
 93
       13
176
     1
 44
0.0
176
     1
173
     0
176
     1
  0
VISUALSTYLE
  5
2D
102
{ACAD_REACTORS
330
2A
102
}
330
2A
100
AcDbVisualStyle
  2
Gouraud
 70
     2
177
     2
291
     1
 71
     2
176
     1
 72
     2
176
     1
 73
     1
176
     1
 90
        2
176
     1
 40
-0.6
176
     1
 41
30.0
176
     1
 62
     5
 63
     7
421
 16777215
176
     1
 74
     0
176
     1
 91
        4
176
     1
 64
     7
176
     1
 65
   257
176
     1
 75
     1
176
     1
175
     1
176
     1
 42
1.0
176
     1
 92
        0
176
     1
 66
     7
176
     1
 43
1.0
176
     1
 76
     1
176
     1
 77
     6
176
     1
 78
     2
176
     1
 67
     7
176
     1
 79
     5
176
     1
170
     0
176
     1
171
     0
176
     1
290
     0
176
     1
 93
       13
176
     1
 44
0.0
176
     1
173
     0
176
     1
  0
VISUALSTYLE
  5
2E
102
{ACAD_REACTORS
330
2A
102
}
330
2A
100
AcDbVisualStyle
  2
GouraudWithEdges
 70
     3
177
     2
291
     1
 71
     2
176
     1
 72
     2
176
     1
 73
     1
176
     1
 90
        2
176
     1
 40
-0.6
176
     1
 41
30.0
176
     1
 62
     5
 63
     7
421
 16777215
176
     1
 74
     1
176
     1
 91
        4
176
     1
 64
     7
176
     1
 65
   257
176
     1
 75
     1
176
     1
175
     1
176
     1
 42
1.0
176
     1
 92
        0
176
     1
 66
   257
176
     1
 43
1.0
176
     1
 76
     1
176
     1
 77
     6
176
     1
 78
     2
176
     1
 67
     7
176
     1
 79
     5
176
     1
170
     0
176
     1
171
     0
176
     1
290
     0
176
     1
 93
       13
176
     1
 44
0.0
176
     1
173
     0
176
     1
  0
VISUALSTYLE
  5
38
102
{ACAD_REACTORS
330
2A
102
}
330
2A
100
AcDbVisualStyle
  2
Linepattern
 70
    14
177
     2
291
     1
 71
     2
176
     1
 72
     2
176
     1
 73
     0
176
     1
 90
        0
176
     1
 40
-0.6
176
     1
 41
-30.0
176
     1
 62
     5
 63
     7
421
 16777215
176
     1
 74
     1
176
     1
 91
        4
176
     1
 64
     7
176
     1
 65
   257
176
     1
 75
     7
176
     1
175
     7
176
     1
 42
1.0
176
     1
 92
        8
176
     1
 66
     7
176
     1
 43
1.0
176
     1
 76
     1
176
     1
 77
     6
176
     1
 78
     2
176
     1
 67
     7
176
     1
 79
     5
176
     1
170
     0
176
     1
171
     0
176
     1
290
     0
176
     1
 93
        1
176
     1
 44
0.0
176
     1
173
     0
176
     1
  0
VISUALSTYLE
  5
33
102
{ACAD_REACTORS
330
2A
102
}
330
2A
100
AcDbVisualStyle
  2
Realistic
 70
     8
177
     2
291
     0
 71
     2
176
     1
 72
     2
176
     1
 73
     0
176
     1
 90
        0
176
     1
 40
-0.6
176
     1
 41
-30.0
176
     1
 62
     5
 63
     7
421
 16777215
176
     1
 74
     1
176
     1
 91
        0
176
     1
 64
     7
176
     1
 65
   257
176
     1
 75
     1
176
     1
175
     1
176
     1
 42
1.0
176
     1
 92
        8
176
     1
 66
     8
424
  7895160
176
     1
 43
1.0
176
     1
 76
     1
176
     1
 77
     6
176
     1
 78
     2
176
     1
 67
     7
176
     1
 79
     5
176
     1
170
     0
176
     1
171
     0
176
     1
290
     0
176
     1
 93
       13
176
     1
 44
0.0
176
     1
173
     0
176
     1
  0
VISUALSTYLE
  5
37
102
{ACAD_REACTORS
330
2A
102
}
330
2A
100
AcDbVisualStyle
  2
Thicken
 70
    13
177
     2
291
     1
 71
     2
176
     1
 72
     2
176
     1
 73
     0
176
     1
 90
        0
176
     1
 40
-0.6
176
     1
 41
-30.0
176
     1
 62
     5
 63
     7
421
 16777215
176
     1
 74
     1
176
     1
 91
        4
176
     1
 64
     7
176
     1
 65
   257
176
     1
 75
     1
176
     1
175
     1
176
     1
 42
1.0
176
     1
 92
       12
176
     1
 66
     7
176
     1
 43
1.0
176
     1
 76
     1
176
     1
 77
     6
176
     1
 78
     2
176
     1
 67
     7
176
     1
 79
     5
176
     1
170
     0
176
     1
171
     0
176
     1
290
     0
176
     1
 93
        1
176
     1
 44
0.0
176
     1
173
     0
176
     1
  0
ENDSEC
  0
EOF
